<svg width="186" height="119" viewBox="0 0 186 119" fill="none" xmlns="http://www.w3.org/2000/svg">
<path d="M185.2 68.2261L117.2 94.1261L118.5 118.626L184.1 91.1261L185.2 68.2261Z" fill="#4363C9"/>
<path d="M185.2 68.226L113.9 63.426L90.1 61.926L0 90.226L117.2 94.126L185.2 68.226Z" fill="#7DA9EF"/>
<path d="M5.2 111.926L118.5 118.626L117.2 94.1261L0 90.2261L5.2 111.926Z" fill="#567BD6"/>
<path d="M28.2 91.126L51.8 92.226L56.9 115.026L35.9 113.726L28.2 91.126Z" fill="#D7A41B"/>
<path d="M28.2 91.126L113.9 63.426L133.8 64.826L51.8 92.226L28.2 91.126Z" fill="#F4C544"/>
<path d="M150.6 81.7261L149.2 105.726L163.9 99.6261L165.5 75.7261L150.6 81.7261Z" fill="#D7A41B"/>
<path d="M165.5 75.7261L60.9 71.0261L43.9 76.4261L150.6 81.7261L165.5 75.7261Z" fill="#F4C544"/>
<path d="M26 43.7261C26 43.7261 52.6 74.5261 84.6 75.6261C92 74.8261 95.4 72.6261 95.4 72.6261L49.1 42.6261C51.4 32.6261 56.4 23.5261 63.7 16.3261C66.7 13.3261 63.5 8.32607 59.5 9.92607L46.2 15.2261L32.6 28.5261L26 43.7261Z" fill="#D7A41B"/>
<path d="M92.1 74.826L66 27.926C65.5 26.926 64.5 26.326 63.4 26.126C60.1 25.626 52.5 25.126 43.5 28.726C31.3 33.526 26 43.626 26 43.626L32.6 28.326C34.5 23.926 37.2 20.026 40.7 16.826C47.2 10.726 55.2 6.72599 63.9 5.22599L71.7 3.82599C74.9 3.22599 78.1 5.12599 79.1 8.32599L99.1 70.326L92.1 74.826Z" fill="#F4C544"/>
<path d="M157.3 29.7261C157.3 29.7261 137.8 65.4261 106.7 73.2261C99.3 74.0261 95.5 72.6261 95.5 72.6261L134.5 33.5261C130.2 24.2261 123.3 16.4261 114.7 10.9261C111.1 8.62611 113.3 3.02611 117.5 3.72611L131.5 6.02611L147.6 16.1261L157.3 29.7261Z" fill="#D7A41B"/>
<path d="M99.2 74.026L114.8 22.726C115.1 21.626 115.9 20.826 117 20.426C120.1 19.226 127.4 17.226 137 18.826C150 21.026 157.2 29.726 157.2 29.726L147.5 16.126C144.7 12.226 141.2 9.02604 137.2 6.52604C129.7 2.02604 121 -0.273961 112.2 0.0260389L104.3 0.326039C101 0.426039 98.3 3.02604 98 6.22604L91.5 71.026L99.2 74.026Z" fill="#F4C544"/>
</svg>
