<svg width="176" height="146" viewBox="0 0 176 146" fill="none" xmlns="http://www.w3.org/2000/svg">
<path d="M0.318848 16.8261L83.6189 0.026123L175.919 13.7261L103.219 31.8261L0.318848 16.8261Z" fill="#567BD6"/>
<path d="M83.6188 0.026123L86.0188 107.826L166.219 121.526L175.919 13.7261L83.6188 0.026123Z" fill="#2B4EA5"/>
<path d="M103.219 145.326L12.4188 124.226L0.318848 16.8262L103.219 31.8262V145.326Z" fill="#4363C9"/>
<path d="M103.219 31.8261L175.919 13.7261L166.219 121.526L103.219 145.326V31.8261Z" fill="#567BD6"/>
<path d="M128.519 135.726L144.019 129.926L156.319 18.5261L140.319 22.6261L128.519 135.726Z" fill="#D7A41B"/>
<path d="M40.9189 130.826L29.2189 21.0261L48.9189 23.9261L57.1189 134.526L40.9189 130.826Z" fill="#D7A41B"/>
</svg>
