<svg width="363" height="123" viewBox="0 0 363 123" fill="none" xmlns="http://www.w3.org/2000/svg">
<path d="M282.056 46.7253L294.594 37.9584L291.958 34.1887L279.42 42.9557L282.056 46.7253Z" fill="#F4C544"/>
<path d="M310.59 49.0969L323.128 40.33L320.492 36.5603L307.954 45.3272L310.59 49.0969Z" fill="#F4C544"/>
<path d="M311.258 15.8777L317.271 1.8078L313.041 0L307.028 14.0699L311.258 15.8777Z" fill="#F4C544"/>
<path d="M283.601 16.7971L287.12 1.90717L282.643 0.849167L279.124 15.7391L283.601 16.7971Z" fill="#F4C544"/>
<path d="M283.708 73.606L298.882 71.6491L298.294 67.0868L283.119 69.0437L283.708 73.606Z" fill="#F4C544"/>
<path d="M348.483 44.0196L362.432 37.7329L360.542 33.539L346.593 39.8258L348.483 44.0196Z" fill="#F4C544"/>
<path d="M333.888 19.2016L345.606 9.36371L342.649 5.84057L330.93 15.6785L333.888 19.2016Z" fill="#F4C544"/>
<path d="M328.503 93.8006L343.74 92.4108L343.322 87.8297L328.085 89.2195L328.503 93.8006Z" fill="#F4C544"/>
<path d="M327.613 68.0242L342.7 65.4828L341.936 60.9468L326.849 63.4881L327.613 68.0242Z" fill="#F4C544"/>
<path d="M290.777 98.3143L304.966 92.5905L303.245 88.3245L289.056 94.0482L290.777 98.3143Z" fill="#F4C544"/>
<path d="M218.577 77.8037L228.874 66.4863L225.472 63.3905L215.175 74.7079L218.577 77.8037Z" fill="#F4C544"/>
<path d="M244.623 67.289L255.441 56.4704L252.189 53.2177L241.37 64.0364L244.623 67.289Z" fill="#F4C544"/>
<path d="M128.254 59.6666L140.081 69.373L142.999 65.8172L131.172 56.1108L128.254 59.6666Z" fill="#F4C544"/>
<path d="M199.176 63.4733L196.033 78.4474L200.535 79.3923L203.678 64.4182L199.176 63.4733Z" fill="#F4C544"/>
<path d="M169.39 60.0858L173.506 74.8212L177.936 73.5838L173.82 58.8484L169.39 60.0858Z" fill="#F4C544"/>
<path d="M15.9469 70.8677L1.05387 67.3625L0 71.8401L14.893 75.3453L15.9469 70.8677Z" fill="#F4C544"/>
<path d="M41.3307 33.8391L30.5121 23.0204L27.2595 26.2731L38.0781 37.0917L41.3307 33.8391Z" fill="#F4C544"/>
<path d="M40.1273 55.7804L26.4981 48.8266L24.4074 52.9243L38.0366 59.8781L40.1273 55.7804Z" fill="#F4C544"/>
<path d="M48.6453 96.6623L33.7967 92.9765L32.6885 97.4408L47.5372 101.127L48.6453 96.6623Z" fill="#F4C544"/>
<path d="M59.9486 16.8983L52.8789 0.999941L48.0363 3.15333L55.1059 19.0517L59.9486 16.8983Z" fill="#F4C544"/>
<path d="M83.6918 70.7561L71.1535 61.9892L68.5177 65.7589L81.056 74.5258L83.6918 70.7561Z" fill="#F4C544"/>
<path d="M60.3536 75.4954L45.7681 70.8732L44.3784 75.2584L58.9639 79.8805L60.3536 75.4954Z" fill="#F4C544"/>
<path d="M71.5103 46.9286L61.3312 35.5056L57.8969 38.5659L68.0759 49.989L71.5103 46.9286Z" fill="#F4C544"/>
<path d="M95.6109 43.4963L87.9609 30.2465L83.9772 32.5465L91.6273 45.7963L95.6109 43.4963Z" fill="#F4C544"/>
<path d="M95.9229 93.5284L80.9993 96.9035L82.0141 101.39L96.9377 98.0152L95.9229 93.5284Z" fill="#F4C544"/>
<path d="M71.6149 114.932L56.6913 118.307L57.7061 122.794L72.6297 119.419L71.6149 114.932Z" fill="#F4C544"/>
</svg>
