<svg width="220" height="46" viewBox="0 0 220 46" fill="none" xmlns="http://www.w3.org/2000/svg">
<path d="M59.1745 45.4626C49.6675 45.5235 41.5013 39.6731 38.0886 31.446C36.3822 27.3019 39.3684 22.7922 43.8781 22.7922C46.3767 22.7922 48.7534 24.2548 49.6675 26.6316C51.1911 30.349 54.9085 32.9695 59.2354 32.9086C64.7811 32.7867 69.1689 28.1551 69.1689 22.6094V6.27701C69.1689 2.80332 71.9722 0 75.4459 0C78.9196 0 81.7229 2.80332 81.7229 6.27701V22.5485C81.7229 35.0415 71.7285 45.4017 59.1745 45.4626Z" fill="#FDC500"/>
<path d="M110.609 45.4626C98.1164 45.4626 87.9391 35.2853 87.9391 22.7922C87.9391 10.2992 98.1164 0.121891 110.609 0.121891C123.407 0.121891 133.28 10.5429 133.28 22.7922C133.28 35.2853 123.103 45.4626 110.609 45.4626ZM110.609 12.615C105.003 12.615 100.432 17.1856 100.432 22.7922C100.432 28.3989 105.003 32.9086 110.609 32.9086C116.216 32.9086 120.787 28.338 120.787 22.7313C120.787 17.1247 116.155 12.615 110.609 12.615Z" fill="#FDC500"/>
<path d="M176.305 2.07207C173.867 -0.3656 169.906 -0.3656 167.468 2.07207L155.95 13.5901L144.371 2.01113C141.933 -0.426542 137.972 -0.426542 135.535 2.01113C133.097 4.4488 133.097 8.41002 135.535 10.8477L149.673 24.9862V39.1856C149.673 42.6593 152.476 45.4626 155.95 45.4626C159.424 45.4626 162.227 42.6593 162.227 39.1856V25.0471L176.366 10.9086C178.742 8.47096 178.742 4.50975 176.305 2.07207Z" fill="#FDC500"/>
<path d="M12.9806 15.1746C11.8227 15.1746 10.9086 14.2604 10.9086 13.1025V2.2549C10.9086 1.097 11.8227 0.182877 12.9806 0.182877C14.1385 0.182877 15.0526 1.097 15.0526 2.2549V13.1025C15.0526 14.2604 14.0776 15.1746 12.9806 15.1746Z" fill="#FDC500"/>
<path d="M2.07202 15.1746C0.914127 15.1746 0 14.2604 0 13.1025V2.2549C0 1.097 0.914127 0.182877 2.07202 0.182877C3.22992 0.182877 4.14404 1.097 4.14404 2.2549V13.1025C4.14404 14.2604 3.22992 15.1746 2.07202 15.1746Z" fill="#FDC500"/>
<path d="M12.4321 5.60664H2.19392V9.75068H12.4321V5.60664Z" fill="#FDC500"/>
<path d="M54.0554 13.1025C54.0554 14.2604 53.1413 15.1745 51.9834 15.1745C50.8255 15.1745 49.9114 14.2604 49.9114 13.1025C49.9114 11.9446 50.8255 11.0305 51.9834 11.0305C53.1413 11.0305 54.0554 11.9446 54.0554 13.1025Z" fill="#FDC500"/>
<path d="M51.9834 9.99451C50.8255 9.99451 49.9114 9.08038 49.9114 7.92249V2.2549C49.9114 1.097 50.8255 0.182877 51.9834 0.182877C53.1413 0.182877 54.0554 1.097 54.0554 2.2549V7.92249C54.0554 9.08038 53.1413 9.99451 51.9834 9.99451Z" fill="#FDC500"/>
<path d="M31.8726 7.43494C31.7507 3.35184 28.277 0.0609807 24.1329 0.182864C20.2327 0.36569 17.0637 3.47372 16.9418 7.374C16.759 11.6399 20.1717 15.1746 24.4377 15.1746C25.9612 15.1746 27.4238 14.687 28.6426 13.8948C29.8615 13.1025 29.8005 11.2743 28.6426 10.482C27.9723 9.9945 26.9972 9.9945 26.3269 10.482C25.7784 10.8477 25.108 11.0914 24.4377 11.0914C23.036 11.0914 21.8172 10.1773 21.3296 8.95849H30.4709C31.2631 8.89754 31.8726 8.22718 31.8726 7.43494ZM24.1329 4.32691C25.4737 4.20502 26.6925 4.93633 27.3019 6.03328H21.4515C22.0609 5.05821 23.036 4.44879 24.1329 4.32691Z" fill="#FDC500"/>
<path d="M39.8559 10.482L33.0914 3.71743C32.2991 2.92518 32.2991 1.58446 33.0914 0.792219C33.8836 -2.47359e-05 35.2243 -2.47359e-05 36.0166 0.792219L39.8559 4.63155L43.6953 0.792219C44.4875 -2.47359e-05 45.8282 -2.47359e-05 46.6205 0.792219C47.4127 1.58446 47.4127 2.92518 46.6205 3.71743L39.8559 10.482Z" fill="#FDC500"/>
<path d="M39.8559 15.1745C38.698 15.1745 37.7839 14.2604 37.7839 13.1025V7.55677C37.7839 6.39888 38.698 5.48475 39.8559 5.48475C41.0138 5.48475 41.928 6.39888 41.928 7.55677V13.1025C41.928 14.2604 41.0138 15.1745 39.8559 15.1745Z" fill="#FDC500"/>
<path d="M195.684 8.1052C197.817 8.1052 199.524 6.39882 199.524 4.26586C199.524 2.1329 197.817 0.426525 195.684 0.426525C193.551 0.426525 191.845 2.1329 191.845 4.26586C191.845 6.33788 193.551 8.1052 195.684 8.1052ZM195.684 2.49855C196.659 2.49855 197.391 3.29079 197.391 4.20492C197.391 5.17999 196.598 5.91129 195.684 5.91129C194.709 5.91129 193.978 5.11905 193.978 4.20492C193.978 3.29079 194.77 2.49855 195.684 2.49855Z" fill="#FDC500"/>
<path d="M202.205 4.63154V7.06921C202.205 7.67863 202.693 8.10522 203.241 8.10522C203.85 8.10522 204.277 7.61769 204.277 7.06921V4.63154L206.715 2.19387C207.141 1.76727 207.141 1.09691 206.715 0.670321C206.288 0.243728 205.618 0.243728 205.191 0.670321L203.241 2.62046L201.291 0.670321C200.864 0.243728 200.194 0.243728 199.767 0.670321C199.341 1.09691 199.341 1.76727 199.767 2.19387L202.205 4.63154Z" fill="#FDC500"/>
<path d="M187.396 2.55945V6.94726C187.396 7.61762 187.884 8.04421 188.493 8.04421C189.103 8.04421 189.59 7.55668 189.59 6.94726V2.55945H190.748C191.357 2.55945 191.784 2.13286 191.784 1.52344C191.784 0.914019 191.357 0.487427 190.748 0.487427H186.177C185.568 0.487427 185.141 0.914019 185.141 1.52344C185.141 2.13286 185.568 2.55945 186.177 2.55945H187.396Z" fill="#FDC500"/>
<path d="M188.798 14.4432L188.006 14.0775C187.579 13.8947 187.518 13.8337 187.518 13.7119C187.518 13.6509 187.518 13.4681 187.945 13.4681C188.249 13.4681 188.432 13.59 188.615 13.7119C188.676 13.7728 188.737 13.7728 188.737 13.8337C188.92 13.9556 189.102 14.0166 189.346 14.0166C189.834 14.0166 190.382 13.59 190.382 12.9806C190.382 12.7368 190.321 12.493 190.138 12.3102C189.895 12.0664 189.224 11.3961 188.006 11.457C186.482 11.457 185.324 12.4321 185.324 13.7119C185.324 14.6869 185.934 15.4182 187.213 16.0277L187.945 16.3324C188.432 16.5761 188.554 16.6371 188.554 16.8199C188.554 16.9418 188.554 17.1246 188.006 17.1246C187.457 17.1246 187.091 16.8199 186.909 16.6371C186.848 16.5761 186.848 16.5761 186.787 16.5152C186.604 16.3933 186.421 16.3324 186.238 16.3324C185.751 16.3324 185.263 16.698 185.202 17.3684C185.202 17.6731 185.324 17.9778 185.629 18.2825C186.177 18.77 187.091 19.1357 187.945 19.1357C189.59 19.1357 190.748 18.1606 190.748 16.759C190.748 15.7229 190.138 14.9916 188.798 14.4432Z" fill="#FDC500"/>
<path d="M196.294 11.5789H191.723C191.114 11.5789 190.687 12.0055 190.687 12.6149C190.687 13.2243 191.114 13.6509 191.723 13.6509H192.881V18.0387C192.881 18.7091 193.368 19.1357 193.978 19.1357C194.587 19.1357 195.075 18.6482 195.075 18.0387V13.6509H196.233C196.842 13.6509 197.269 13.2243 197.269 12.6149C197.33 12.0055 196.903 11.5789 196.294 11.5789Z" fill="#FDC500"/>
<path d="M201.169 11.4569C198.914 11.4569 197.208 13.1633 197.208 15.2963C197.208 17.4292 198.975 19.1356 201.169 19.1356C203.424 19.1356 205.191 17.4292 205.191 15.2963C205.191 13.1633 203.363 11.4569 201.169 11.4569ZM201.169 17.0636C200.133 17.0636 199.463 16.3932 199.463 15.2963C199.463 14.2603 200.133 13.529 201.169 13.529C202.205 13.529 202.875 14.2603 202.875 15.2963C202.875 16.3323 202.144 17.0636 201.169 17.0636Z" fill="#FDC500"/>
<path d="M210.798 16.1495C211.346 15.662 211.651 14.9916 211.651 14.1994C211.651 12.6759 210.432 11.5789 208.726 11.5789H206.897C206.227 11.5789 205.801 12.0664 205.801 12.6759V17.9778C205.801 18.6482 206.288 19.0747 206.897 19.0747C207.507 19.0747 207.994 18.5872 207.994 17.9778V16.8199H208.665L209.823 18.5872C210.066 18.9529 210.371 19.1357 210.798 19.1357C211.346 19.1357 211.834 18.6482 211.834 18.0997C211.834 17.8559 211.712 17.5512 211.529 17.3074L210.798 16.1495ZM209.396 14.1994C209.396 14.5651 209.152 14.8088 208.726 14.8088H207.994V13.529H208.726C209.152 13.59 209.396 13.8338 209.396 14.1994Z" fill="#FDC500"/>
<path d="M215.978 11.457C213.967 11.518 212.382 13.1634 212.321 15.1135C212.26 17.3074 213.967 19.0747 216.161 19.0747C216.953 19.0747 217.684 18.831 218.294 18.4044C218.903 17.9778 218.903 17.0637 218.294 16.6371C217.928 16.3933 217.44 16.3933 217.136 16.6371C216.831 16.8199 216.526 16.9418 216.161 16.9418C215.429 16.9418 214.82 16.4542 214.576 15.8448H219.269C219.695 15.8448 220 15.5401 220 15.1135C219.878 13.0415 218.111 11.3961 215.978 11.457ZM214.637 14.4432C214.942 13.9556 215.429 13.59 215.978 13.59C216.648 13.529 217.319 13.8947 217.623 14.4432H214.637Z" fill="#FDC500"/>
</svg>
