<svg width="26" height="26" viewBox="0 0 26 26" fill="none" xmlns="http://www.w3.org/2000/svg">
<path fill-rule="evenodd" clip-rule="evenodd" d="M26 13C26 20.1797 20.1797 26 13 26C5.8203 26 0 20.1797 0 13C0 5.8203 5.8203 0 13 0C20.1797 0 26 5.8203 26 13ZM6.38171 9L13.0002 13.8438L19.6187 9H6.38171ZM13 14.4102C13.0638 14.4102 13.1274 14.3913 13.1792 14.3534L20 9.36157V17.1152C20 17.2512 19.8748 17.3611 19.72 17.3611H6.28C6.12544 17.3611 6 17.2512 6 17.1152V9.36133L12.8208 14.3534C12.8726 14.3913 12.9362 14.4102 13 14.4102Z" fill="#F4C544"/>
</svg>
