<svg width="26" height="26" viewBox="0 0 26 26" fill="none" xmlns="http://www.w3.org/2000/svg">
<path d="M13.0001 0C5.82084 0 0 5.82084 0 13.0001C0 20.1792 5.82084 26.0001 13.0001 26.0001C20.1793 26.0001 26 20.1791 26 13.0001C26.0001 5.82084 20.1793 0 13.0001 0ZM19.8649 18.9685L18.8241 20.0096C18.6382 20.1952 18.0941 20.311 18.0766 20.311C14.7837 20.3397 11.6131 19.0463 9.28356 16.7165C6.94762 14.3792 5.65269 11.1973 5.68746 7.89334C5.68746 7.89334 5.80664 7.36328 5.99231 7.17938L7.03314 6.13838C7.41403 5.75573 8.14568 5.58281 8.65822 5.75428L8.87717 5.82732C9.38821 5.99863 9.92475 6.56369 10.066 7.08426L10.5895 9.00593C10.7307 9.52801 10.5403 10.2708 10.1595 10.6516L9.46451 11.3467C10.1469 13.8728 12.1289 15.8553 14.6555 16.5393L15.3502 15.844C15.7328 15.4614 16.4753 15.2711 16.9963 15.4121L18.9177 15.9375C19.4383 16.0806 20.0033 16.6138 20.1746 17.1247L20.2476 17.3468C20.4173 17.8579 20.2458 18.5893 19.8649 18.9685Z" fill="#F4C544"/>
</svg>
