<svg width="26" height="32" viewBox="0 0 26 32" fill="none" xmlns="http://www.w3.org/2000/svg">
<path fill-rule="evenodd" clip-rule="evenodd" d="M3.80622 3.85116C8.88119 -1.28372 17.1188 -1.28372 22.1938 3.85116C27.2687 8.98605 27.2687 17.3209 22.1938 22.4558L14.0297 30.7535C13.7355 31.0512 13.3678 31.2 13 31.2C12.6322 31.2 12.2645 31.0512 11.9703 30.7535L3.80622 22.493C-1.26874 17.3581 -1.26874 8.98605 3.80622 3.85116ZM6.83026 12.6987C6.83026 16.1429 9.59601 18.9413 13 18.9413C16.404 18.9413 19.1698 16.1429 19.1698 12.6987C19.1698 9.25446 16.404 6.45605 13 6.45605C9.59601 6.45605 6.83026 9.25446 6.83026 12.6987Z" fill="#F4C544"/>
</svg>
