<svg width="176" height="151" viewBox="0 0 176 151" fill="none" xmlns="http://www.w3.org/2000/svg">
<path d="M64.9378 104.258C64.9378 104.258 63.9115 146.18 54.3587 149.495C47.2532 151.943 43.7005 133.942 36.2004 138.364C35.4898 138.758 33.0424 142.469 30.6739 146.18C27.5949 150.995 20.8053 151.785 16.8579 147.68C14.8052 145.548 13.0683 143.18 12.9104 140.969C12.2788 134.811 18.3579 131.179 18.3579 131.179C18.3579 131.179 5.4892 135.285 1.85755 123.837C0.0417202 117.995 13.3052 113.732 13.3052 113.732C11.5683 114.916 -1.37936 108.205 0.120669 100.31C1.6207 92.4153 14.7262 89.731 14.7262 89.731C14.7262 89.731 9.35771 79.0729 12.2788 80.2571C25.5423 85.3888 49.6217 85.4678 48.8322 83.6519C48.7533 83.573 62.6483 91.7047 64.9378 104.258Z" fill="#CB9DD6"/>
<path d="M21.5946 129.758C21.5946 129.758 30.6738 125.574 42.5161 113.889C54.4374 102.205 64.0692 98.6522 64.0692 98.6522C64.0692 98.6522 60.8323 92.4153 56.8849 96.0469C52.9374 99.5996 35.6476 113.416 26.1737 115.942C17.1735 118.311 11.0155 120.995 10.0681 123.995C8.9628 127.627 14.2524 129.048 21.5946 129.758Z" fill="#AD75BA"/>
<path d="M35.4898 136.469C35.4898 136.469 44.6479 122.1 53.9639 112.626C63.2798 103.231 63.8325 100.942 63.8325 100.942C63.8325 100.942 48.3585 113.1 39.1214 123.363C29.8844 133.627 20.7263 131.89 19.1473 137.258C18.8315 138.206 18.9105 139.153 19.2263 140.101C20.8053 145.39 27.9896 146.417 31.3055 141.995L35.4898 136.469Z" fill="#AD75BA"/>
<path d="M49.7003 142.074C53.6477 143.022 58.6215 138.68 57.911 129.364C57.2794 119.969 63.5163 110.337 60.911 111.679C58.3057 113.1 38.5685 133.153 48.2792 141.048L49.7003 142.074Z" fill="#AD75BA"/>
<path d="M15.5161 119.969C29.9638 115.153 44.4904 108.047 55.6222 97.4682C56.1749 96.9155 55.5433 96.4418 54.9906 96.8366C42.3588 105.758 30.0427 113.969 15.5951 119.653C15.2793 119.732 15.2793 120.048 15.5161 119.969Z" fill="#935E9E"/>
<path d="M12.3578 101.81C25.6212 103.468 40.6215 101.337 50.806 91.9416C51.4376 91.31 50.6481 90.8363 50.0954 91.231C38.5689 98.8891 26.4107 101.494 12.7525 101.258C12.4367 101.258 11.963 101.81 12.3578 101.81Z" fill="#CB9DD6"/>
<path d="M110.65 46.0723C110.65 46.0723 111.676 4.15034 121.229 0.83448C128.334 -1.61294 131.887 16.3874 139.387 11.9663C140.098 11.5716 142.545 7.86094 144.914 4.15034C147.993 -0.665552 154.782 -1.45504 158.73 2.65031C160.782 4.78193 162.519 7.1504 162.677 9.36098C163.309 15.519 157.23 19.1507 157.23 19.1507C157.23 19.1507 171.44 20.8086 173.73 26.4929C176.019 32.1772 164.809 35.0984 164.809 35.0984C164.809 35.0984 173.414 45.3617 175.546 50.0197C177.677 54.6777 158.256 58.941 158.256 58.941C158.256 58.941 170.098 72.2834 163.467 70.1517C152.73 66.678 128.65 68.178 128.65 68.178C128.65 68.178 112.939 58.6252 110.65 46.0723Z" fill="#CB9DD6"/>
<path d="M153.992 20.5718C153.992 20.5718 144.913 24.7561 133.071 36.4405C121.15 48.125 111.518 51.6777 111.518 51.6777C111.518 51.6777 114.755 57.9147 118.702 54.362C122.729 50.8093 139.939 36.9932 149.413 34.4668C158.414 32.0983 164.572 29.4141 165.519 26.414C166.703 22.7824 161.414 21.2823 153.992 20.5718Z" fill="#AD75BA"/>
<path d="M164.808 35.1772C164.808 35.1772 151.624 37.7826 140.571 45.2827C129.518 52.7829 117.834 59.4936 117.834 59.4936L120.755 61.1515C120.755 61.1515 143.729 47.967 152.729 48.7565C161.729 49.546 169.545 49.9407 166.624 43.7827C163.782 37.6247 164.808 35.1772 164.808 35.1772Z" fill="#AD75BA"/>
<path d="M158.177 58.9409C158.177 58.9409 149.019 57.204 139.229 59.9672C129.44 62.7304 125.65 64.2305 125.65 64.2305C125.65 64.2305 126.597 67.4674 128.255 66.7568C129.913 66.0463 144.835 60.283 155.098 64.7831C160.388 67.1516 158.177 58.9409 158.177 58.9409Z" fill="#AD75BA"/>
<path d="M160.072 30.3614C145.624 35.1773 131.097 42.2827 119.965 52.8619C119.413 53.4146 120.044 53.8883 120.597 53.4935C133.229 44.5723 145.545 36.3616 159.993 30.6772C160.308 30.5983 160.387 30.2825 160.072 30.3614Z" fill="#935E9E"/>
<path d="M144.598 39.5984C148.466 37.7037 152.414 36.2036 156.44 34.8615C159.598 33.7562 163.782 33.4404 166.624 31.7035C168.756 30.4404 170.256 26.0982 167.098 25.1508C166.151 24.835 166.151 26.4929 166.467 26.9666C167.73 29.0193 156.361 32.0193 155.177 32.493C151.308 34.072 147.835 36.2036 144.361 38.4932C144.045 38.73 144.045 39.8353 144.598 39.5984Z" fill="#DEACEA"/>
<path d="M64.9377 40.7039C84.8328 27.1246 111.281 31.3089 124.07 50.0199C136.781 68.7308 131.018 94.8629 111.123 108.442C91.2277 122.021 64.7008 117.758 51.99 99.1262C39.2003 80.4152 45.0425 54.2831 64.9377 40.7039Z" fill="#935E9E"/>
<path d="M125.886 8.25566C121.939 7.30827 116.965 11.6505 117.676 20.9665C118.307 30.3614 112.07 39.9932 114.676 38.651C117.281 37.23 137.018 17.1769 127.307 9.282L125.886 8.25566Z" fill="#CB9DD6"/>
<path d="M17.4106 91.3891C17.4106 91.3891 26.5687 93.126 36.3584 90.3627C46.1481 87.5995 49.9376 86.0995 49.9376 86.0995C49.9376 86.0995 48.9902 82.8626 47.3323 83.5731C45.6744 84.2837 30.753 90.0469 20.4896 85.5469C15.2 83.1784 17.4106 91.3891 17.4106 91.3891Z" fill="#AD75BA"/>
<path d="M64.8589 40.7039C83.8857 27.7562 108.676 31.0721 120.281 48.0462C131.887 65.0202 125.887 89.3365 106.939 102.284C87.9121 115.232 63.1221 111.916 51.5165 94.9419C39.911 77.9678 45.9112 53.6515 64.8589 40.7039Z" fill="#2FED73"/>
<path d="M64.8589 40.7039C83.8857 27.7562 108.676 31.0721 120.281 48.0462C131.887 65.0202 125.887 89.3365 106.939 102.284C87.9121 115.232 63.1221 111.916 51.5165 94.9419C39.911 77.9678 45.9112 53.6515 64.8589 40.7039Z" fill="#CB9DD6"/>
<path d="M65.4907 44.4145C80.2542 34.309 105.755 35.4143 114.755 48.6778C123.755 61.9412 93.6755 53.1779 78.8331 63.2833C64.0696 73.3888 62.3328 102.047 53.2536 88.8628C44.3324 75.5994 50.7273 54.52 65.4907 44.4145Z" fill="#E2B5ED"/>
<path d="M117.202 61.6252C117.834 72.0464 115.781 82.7835 108.676 90.7574C102.518 97.6259 89.4909 105.521 80.017 103.547C79.4644 103.389 79.3854 104.494 79.8591 104.731C90.0436 109.31 104.333 99.8365 110.649 91.9416C117.518 83.4151 119.807 72.1254 117.992 61.4673C117.834 60.8357 117.123 61.0725 117.202 61.6252Z" fill="#DEACEA"/>
<path d="M79.7017 99.8365C73.9384 101.968 68.1751 100.942 66.833 97.3891C65.4909 93.9153 69.1225 89.2574 74.8858 87.1257C80.6491 84.9941 86.4124 86.0204 87.7545 89.5731C89.0966 93.1259 85.465 97.7049 79.7017 99.8365Z" fill="#DEACEA"/>
<path d="M148.071 24.2825C137.019 28.9405 132.045 41.9671 120.123 45.125C119.097 45.3619 119.413 47.8093 120.597 47.5725C132.834 44.4935 137.808 31.4669 148.229 25.4667C148.703 25.1509 148.624 24.0457 148.071 24.2825Z" fill="#935E9E"/>
<path d="M158.73 58.4672C148.782 55.1513 137.65 57.0461 128.176 61.0725C126.755 61.7041 127.308 65.2568 128.887 64.5463C138.755 60.283 148.071 59.8883 158.572 60.1251C159.282 60.1251 159.282 58.6251 158.73 58.4672Z" fill="#935E9E"/>
<path d="M40.4637 129.048C46.5428 120.916 53.3324 113.337 61.6221 107.495C62.2537 107.1 62.0958 105.126 61.1484 105.205C56.6483 105.679 53.3324 110.89 50.5692 114.047C46.7007 118.39 42.7533 123.127 39.8321 128.179C39.5953 128.574 39.99 129.679 40.4637 129.048Z" fill="#935E9E"/>
<path d="M50.1744 125.179C52.6219 122.179 55.2272 119.337 57.9904 116.574C60.7536 113.81 63.5168 111.916 66.7537 109.784C67.5432 109.31 67.6222 107.416 66.5169 107.337C63.1221 107.1 59.9641 111.126 57.9115 113.337C54.7535 116.653 52.0692 120.205 49.6218 124.074C49.385 124.469 49.7007 125.732 50.1744 125.179Z" fill="#935E9E"/>
<path d="M122.649 18.2822C123.202 27.1245 120.36 33.8351 116.412 41.4932C116.097 42.1248 116.57 44.4143 117.439 43.388C122.965 36.6773 124.386 26.6508 123.597 18.2822C123.518 17.4137 122.649 17.4137 122.649 18.2822Z" fill="#935E9E"/>
<path d="M12.8319 114.916C19.3057 112.074 25.8585 109.311 32.2534 106.31C37.543 103.863 46.1484 97.2313 51.9117 98.0998C52.8591 98.2577 52.7801 96.1261 52.0696 95.8103C47.3326 93.9155 39.9904 99.7577 35.885 101.81C28.0691 105.6 20.3321 109.705 12.5951 113.811C12.2003 113.969 12.3582 115.153 12.8319 114.916Z" fill="#935E9E"/>
<path d="M124.465 38.8877C129.834 35.7297 133.702 31.3875 137.255 26.3348C140.65 21.5189 148.623 5.72911 155.887 7.70284C156.992 8.01863 157.071 6.04491 156.439 5.57121C150.834 1.15007 144.913 11.5713 142.229 15.5188C136.86 23.5716 132.281 32.0981 124.149 37.7824C123.755 38.0193 123.991 39.1246 124.465 38.8877Z" fill="#E9CEEF"/>
<path d="M117.123 32.2561C117.834 29.4139 118.623 26.6507 119.255 23.8085C119.728 21.7559 119.807 16.7821 121.149 15.2821C126.755 8.41349 128.886 17.8874 132.123 19.7032C137.413 22.6243 143.571 18.6769 145.229 13.4662C145.466 12.7557 144.834 11.1767 144.045 12.203C142.229 14.7294 140.176 17.4137 136.702 17.6505C132.202 17.8874 131.018 14.3347 129.044 11.1767C127.702 9.04508 125.886 7.07135 123.202 8.01874C120.913 8.88718 120.123 11.4925 119.57 13.6241C117.991 19.6242 117.439 25.9402 116.491 32.0982C116.491 32.5719 117.044 32.8877 117.123 32.2561Z" fill="#E9CEEF"/>
<path d="M38.332 92.9681C32.9635 94.3102 27.437 94.9418 21.9106 94.547C18.9895 94.3102 15.4368 93.2838 12.7525 94.8628C9.27877 96.8366 9.04192 102.047 12.3578 104.258C13.2262 104.81 13.542 103.231 13.0683 102.679C12.8315 98.2576 14.2526 96.2839 17.1737 96.6787C18.1211 96.7576 19.1474 96.8366 20.0948 96.9155C22.3054 97.0734 24.437 97.2313 26.5686 97.0734C30.7529 96.8366 34.6214 95.8102 38.4899 94.2312C39.1215 93.9944 38.9636 92.8102 38.332 92.9681Z" fill="#E9CEEF"/>
</svg>
