<svg width="80" height="151" viewBox="0 0 80 151" fill="none" xmlns="http://www.w3.org/2000/svg">
<path d="M51.4366 112.735C51.4366 112.735 60.0888 154.15 72.5558 150.036C85.0478 145.922 66.2974 109.294 66.2974 109.294L51.4366 112.735Z" fill="#EDA958"/>
<path d="M71.2593 150.31C81.2329 144.201 63.804 110.141 63.804 110.141L51.4866 112.984C52.1598 116.15 60.014 151.283 71.2593 150.31Z" fill="#FFB56C"/>
<path d="M59.2411 112.934C36.975 120.913 23.6851 107.473 17.2521 94.6573C10.8441 81.8412 -17.6556 15.4168 18.798 3.4235C55.2517 -8.56979 69.4641 49.8258 76.0467 69.798C82.6043 89.7702 78.5401 106.027 59.2411 112.934Z" fill="#FF9C9C"/>
<path d="M52.085 114.729C52.085 114.729 76.8446 109.244 72.157 86.5787C67.4694 63.9136 56.9721 16.863 38.0471 8.1361C22.5382 1.00496 7.90186 10.4051 7.90186 10.4051C7.90186 10.4051 22.6628 -8.37025 45.7019 4.52066C66.5967 16.2147 76.2462 67.0803 78.8393 78.3255C81.4324 89.5708 79.1385 98.5471 74.8997 103.359C65.2253 114.305 52.085 114.729 52.085 114.729Z" fill="#FF7676"/>
<path d="M52.085 114.729C52.085 114.729 76.8446 109.244 72.157 86.5787C67.4694 63.9136 56.9721 16.863 38.0471 8.1361C22.5382 1.00496 7.90186 10.4051 7.90186 10.4051C7.90186 10.4051 22.6628 -8.37025 45.7019 4.52066C66.5967 16.2147 76.2462 67.0803 78.8393 78.3255C81.4324 89.5708 79.1385 98.5471 74.8997 103.359C65.2253 114.305 52.085 114.729 52.085 114.729Z" fill="#FF8888"/>
<path d="M18.1995 22.5231L12.0159 24.5677C11.3925 24.7672 10.7193 24.443 10.5198 23.8197L10.47 23.6701C10.2705 23.0467 10.5946 22.3735 11.218 22.174L17.4016 20.1294C18.025 19.93 18.6982 20.2541 18.8977 20.8775L18.9475 21.0271C19.147 21.6504 18.8229 22.3236 18.1995 22.5231Z" fill="#BF81C6"/>
<path d="M14.9332 14.6439C14.634 13.7712 15.1077 12.8486 15.9555 12.5494C16.8033 12.2751 17.7258 12.7489 18.025 13.6216C18.3242 14.4943 17.8505 15.4168 17.0027 15.716C16.13 16.0152 15.2075 15.5166 14.9332 14.6439Z" fill="#FF7676"/>
<path d="M15.9804 22.174L12.1905 23.4207C11.991 23.4955 11.7666 23.3708 11.7167 23.1713C11.6419 22.9719 11.7666 22.7475 11.966 22.6976L15.756 21.4509C15.9555 21.3761 16.1799 21.5008 16.2298 21.7002C16.3046 21.8997 16.1799 22.1241 15.9804 22.174Z" fill="#D28DDB"/>
<path d="M15.4567 15.0429C14.9331 14.5192 14.9331 13.6466 15.4567 13.1229C15.9804 12.5993 16.853 12.5993 17.3767 13.1229C17.9003 13.6466 17.9003 14.5192 17.3767 15.0429C16.8281 15.5914 15.9804 15.5914 15.4567 15.0429Z" fill="#FFBD76"/>
<path d="M15.407 14.27C15.2574 13.8211 15.5068 13.3474 15.9556 13.1978C16.4044 13.0482 16.8781 13.2975 17.0277 13.7463C17.1773 14.1952 16.928 14.6689 16.4792 14.8185C16.0304 14.9432 15.5566 14.6938 15.407 14.27Z" fill="#FFD4B0"/>
<path d="M34.1824 14.0456C35.0053 13.6466 36.0026 13.9957 36.3766 14.8185C36.7506 15.6414 36.3766 16.6138 35.5538 16.9878C34.731 17.3867 33.7336 17.0377 33.3596 16.2148C32.9856 15.392 33.3596 14.4196 34.1824 14.0456Z" fill="#FF7676"/>
<path d="M33.8581 14.6189C34.3318 14.0454 35.1796 13.9457 35.7531 14.3945C36.3266 14.8683 36.4263 15.716 35.9775 16.2895C35.5037 16.863 34.656 16.9627 34.0825 16.5139C33.4841 16.0402 33.3843 15.1924 33.8581 14.6189Z" fill="#FFBD76"/>
<path d="M34.6311 14.4695C35.055 14.2701 35.5537 14.4446 35.7532 14.8685C35.9526 15.2924 35.7781 15.791 35.3542 15.9905C34.9303 16.19 34.4317 16.0154 34.2322 15.5916C34.0327 15.1677 34.2322 14.669 34.6311 14.4695Z" fill="#FFD4B0"/>
<path d="M4.43589 34.616L5.907 28.2828C6.0566 27.6345 6.70489 27.2356 7.32824 27.3852L7.47784 27.4101C8.12613 27.5597 8.52507 28.208 8.37547 28.8313L6.90436 35.1646C6.75475 35.8129 6.10647 36.2118 5.48312 36.0622L5.33351 36.0373C4.68523 35.8877 4.28628 35.2394 4.43589 34.616Z" fill="#13B3B7"/>
<path d="M12.8638 35.9126C13.7614 36.1121 14.31 36.9848 14.1105 37.8575C13.911 38.7302 13.0134 39.2787 12.1158 39.0543C11.2182 38.8549 10.6696 37.9822 10.8691 37.1095C11.0935 36.2368 11.9662 35.6882 12.8638 35.9126Z" fill="#FF7676"/>
<path d="M5.88225 32.8957L6.77988 29.006C6.82975 28.8065 7.02922 28.6818 7.22869 28.7317C7.42817 28.7816 7.55284 28.981 7.5279 29.1805L6.63027 33.0702C6.58041 33.2697 6.38093 33.3944 6.18146 33.3445C5.95705 33.3196 5.83238 33.0952 5.88225 32.8957Z" fill="#26C6C6"/>
<path d="M12.2404 36.1622C12.9635 35.9876 13.6866 36.4365 13.8611 37.1595C14.0357 37.8826 13.5869 38.6057 12.8638 38.7803C12.1407 38.9548 11.4176 38.506 11.2431 37.7829C11.0685 37.0598 11.5173 36.3367 12.2404 36.1622Z" fill="#FFBD76"/>
<path d="M12.9635 36.5112C13.4123 36.6109 13.7115 37.0597 13.5868 37.5335C13.4871 37.9823 13.0383 38.2815 12.5645 38.1568C12.1157 38.0571 11.8165 37.6083 11.9412 37.1345C12.0409 36.6857 12.4897 36.4114 12.9635 36.5112Z" fill="#FFEA80"/>
<path d="M26.5028 29.6045L26.2534 36.1123C26.2285 36.7605 25.68 37.2842 25.0317 37.2592H24.8821C24.2338 37.2343 23.7102 36.6857 23.7351 36.0375L23.9844 29.5297C24.0094 28.8814 24.5579 28.3578 25.2062 28.3827H25.3558C26.0041 28.4076 26.5277 28.9562 26.5028 29.6045Z" fill="#F95050"/>
<path d="M17.9752 29.9534C17.0527 29.9285 16.3296 29.1555 16.3794 28.2828C16.4044 27.3852 17.1773 26.687 18.0999 26.7369C19.0225 26.7618 19.7455 27.5348 19.6957 28.4075C19.6707 29.2802 18.8978 29.9783 17.9752 29.9534Z" fill="#FF7676"/>
<path d="M25.4055 31.5742L25.2559 35.5637C25.2559 35.7632 25.0814 35.9377 24.857 35.9377C24.6575 35.9377 24.483 35.7632 24.483 35.5388L24.6326 31.5493C24.6326 31.3498 24.832 31.1753 25.0315 31.1753C25.2559 31.1753 25.4305 31.3498 25.4055 31.5742Z" fill="#FF886C"/>
<path d="M18.5488 29.5796C17.8756 29.8788 17.0777 29.5796 16.7535 28.9064C16.4294 28.2331 16.7535 27.4352 17.4267 27.1111C18.1 26.8119 18.8978 27.1111 19.222 27.7843C19.5212 28.4825 19.222 29.2804 18.5488 29.5796Z" fill="#FFBD76"/>
<path d="M17.7757 29.3549C17.302 29.33 16.9529 28.956 16.9529 28.4822C16.9778 28.0085 17.3518 27.6594 17.8256 27.6594C18.2993 27.6844 18.6484 28.0584 18.6484 28.5321C18.6235 29.0059 18.2495 29.3799 17.7757 29.3549Z" fill="#FFD4B0"/>
<path d="M42.5851 18.2593L47.8213 22.149C48.3449 22.5479 48.4446 23.2959 48.0706 23.8196L47.9709 23.9442C47.5719 24.4678 46.8239 24.5676 46.3003 24.1936L41.0891 20.3039C40.5655 19.9049 40.4657 19.1569 40.8397 18.6333L40.9395 18.5086C41.2885 17.9601 42.0615 17.8603 42.5851 18.2593Z" fill="#13B3B7"/>
<path d="M38.0221 25.4404C37.4736 26.1884 36.4513 26.338 35.7282 25.8144C35.0051 25.2907 34.8804 24.2435 35.429 23.5204C35.9775 22.7724 36.9998 22.6228 37.7229 23.1464C38.4211 23.695 38.5707 24.7173 38.0221 25.4404Z" fill="#FF7676"/>
<path d="M43.5826 20.2542L46.7741 22.6479C46.9487 22.7725 46.9736 23.0219 46.8489 23.1964C46.7243 23.3709 46.4749 23.3959 46.3004 23.2712L43.1088 20.8775C42.9343 20.7529 42.9094 20.5035 43.034 20.329C43.1587 20.1545 43.408 20.1295 43.5826 20.2542Z" fill="#26C6C6"/>
<path d="M38.0471 24.7921C37.9224 25.5152 37.2242 26.0139 36.4762 25.8892C35.7531 25.7645 35.2544 25.0664 35.3791 24.3184C35.5038 23.5953 36.2019 23.0966 36.95 23.2213C37.673 23.3459 38.1717 24.0441 38.0471 24.7921Z" fill="#FFBD76"/>
<path d="M37.4237 25.2908C37.1494 25.6648 36.6258 25.7396 36.2518 25.4653C35.8778 25.1911 35.803 24.6674 36.0773 24.2934C36.3515 23.9194 36.8752 23.8446 37.2492 24.1189C37.6232 24.3932 37.698 24.9168 37.4237 25.2908Z" fill="#FFD4B0"/>
<path d="M48.3947 40.1514L41.9617 39.1291C41.3134 39.0294 40.8646 38.406 40.9643 37.7578L40.9892 37.6082C41.089 36.9599 41.7123 36.5111 42.3606 36.6108L48.7936 37.6331C49.4419 37.7328 49.8907 38.3562 49.791 39.0045L49.766 39.1541C49.6414 39.8273 49.043 40.2761 48.3947 40.1514Z" fill="#F95050"/>
<path d="M49.093 31.6739C49.2426 30.7763 50.0654 30.1529 50.963 30.2776C51.8357 30.4272 52.4341 31.275 52.3095 32.1726C52.1599 33.0702 51.337 33.6936 50.4394 33.5689C49.5418 33.4193 48.9434 32.5715 49.093 31.6739Z" fill="#FF7676"/>
<path d="M46.5746 38.8548L42.635 38.2315C42.4356 38.2066 42.286 38.0071 42.3109 37.7827C42.3358 37.5832 42.5353 37.4336 42.7597 37.4585L46.6993 38.0819C46.8988 38.1068 47.0484 38.3063 47.0234 38.5307C46.9736 38.7302 46.7741 38.8798 46.5746 38.8548Z" fill="#FF886C"/>
<path d="M49.3672 32.2723C49.1428 31.5492 49.5417 30.8012 50.2399 30.5768C50.963 30.3524 51.711 30.7513 51.9354 31.4495C52.1598 32.1726 51.7609 32.9206 51.0627 33.145C50.3646 33.3694 49.5916 32.9954 49.3672 32.2723Z" fill="#FFBD76"/>
<path d="M49.6913 31.5492C49.7661 31.1004 50.19 30.7763 50.6637 30.8511C51.1125 30.9259 51.4367 31.3498 51.3619 31.8235C51.2871 32.2723 50.8632 32.5965 50.3895 32.5217C49.9406 32.4219 49.6165 31.9981 49.6913 31.5492Z" fill="#FFD4B0"/>
<path d="M30.3923 35.1149L35.7781 31.4496C36.3266 31.0756 37.0746 31.2252 37.4237 31.7737L37.5234 31.8984C37.8974 32.447 37.7478 33.195 37.1993 33.5441L31.8135 37.2094C31.265 37.5834 30.517 37.4338 30.1679 36.8852L30.0681 36.7606C29.7191 36.2369 29.8687 35.4889 30.3923 35.1149Z" fill="#FFEA80"/>
<path d="M35.7033 41.7972C36.2269 42.5701 36.0274 43.5924 35.3044 44.0911C34.5563 44.5898 33.534 44.3903 33.0354 43.6173C32.5117 42.8444 32.7112 41.8221 33.4343 41.3234C34.1823 40.8247 35.1797 41.0242 35.7033 41.7972Z" fill="#FF7676"/>
<path d="M32.6114 34.8407L35.9027 32.5966C36.0773 32.4719 36.3266 32.5218 36.4263 32.6963C36.551 32.8709 36.5012 33.1202 36.3266 33.2199L33.0353 35.464C32.8608 35.5887 32.6114 35.5388 32.5117 35.3643C32.387 35.1897 32.4369 34.9653 32.6114 34.8407Z" fill="#FFE2DE"/>
<path d="M35.0801 41.5476C35.7284 41.9217 35.9528 42.7445 35.6037 43.3928C35.2297 44.041 34.4069 44.2655 33.7586 43.9164C33.1103 43.5424 32.8859 42.7195 33.235 42.0713C33.609 41.423 34.4318 41.1986 35.0801 41.5476Z" fill="#FFBD76"/>
<path d="M35.3544 42.2957C35.6286 42.6697 35.504 43.2182 35.13 43.4676C34.7559 43.7169 34.2074 43.6172 33.9581 43.2432C33.7087 42.8692 33.8085 42.3206 34.1825 42.0713C34.5565 41.8219 35.105 41.9217 35.3544 42.2957Z" fill="#FFD4B0"/>
<path d="M7.77716 47.0832L13.1629 43.4179C13.7115 43.0439 14.4595 43.1935 14.8086 43.742L14.9083 43.8667C15.2823 44.4152 15.1327 45.1632 14.5842 45.5123L9.19841 49.1776C8.64986 49.5516 7.90183 49.402 7.55276 48.8535L7.45302 48.7288C7.07901 48.2052 7.22861 47.4572 7.77716 47.0832Z" fill="#FFE2DE"/>
<path d="M13.088 53.7654C13.6116 54.5384 13.4122 55.5607 12.6891 56.0594C11.941 56.558 10.9187 56.3586 10.4201 55.5856C9.89645 54.8376 10.0959 53.7904 10.819 53.2917C11.5421 52.793 12.5644 52.9925 13.088 53.7654Z" fill="#FF7676"/>
<path d="M9.99638 46.8089L13.2877 44.5649C13.4622 44.4402 13.7116 44.4901 13.8113 44.6646C13.936 44.8391 13.8861 45.0885 13.7116 45.1882L10.4203 47.4323C10.2457 47.5569 9.99638 47.5071 9.89665 47.3325C9.77198 47.158 9.82184 46.9336 9.99638 46.8089Z" fill="#FFF6F5"/>
<path d="M12.4648 53.5162C13.1131 53.8902 13.3375 54.7131 12.9885 55.3613C12.6144 56.0096 11.7916 56.234 11.1433 55.885C10.4951 55.511 10.2706 54.6881 10.6197 54.0398C10.9688 53.3916 11.7916 53.1422 12.4648 53.5162Z" fill="#FFBD76"/>
<path d="M12.714 54.2642C12.9883 54.6382 12.8636 55.1868 12.4896 55.4361C12.1156 55.6854 11.5671 55.5857 11.3177 55.2117C11.0684 54.8377 11.1681 54.2891 11.5421 54.0398C11.9411 53.7904 12.4647 53.8902 12.714 54.2642Z" fill="#FFD4B0"/>
<path d="M29.8188 46.5098L30.8411 52.9428C30.9409 53.5911 30.4921 54.1895 29.8438 54.3141L29.6942 54.3391C29.0459 54.4388 28.4225 53.99 28.3228 53.3417L27.3005 46.9087C27.2008 46.2604 27.6496 45.6371 28.2979 45.5373L28.4475 45.5124C29.1207 45.4127 29.7191 45.8615 29.8188 46.5098Z" fill="#FF7676"/>
<path d="M21.5407 48.4794C20.6431 48.629 19.7953 48.0306 19.6457 47.133C19.4961 46.2603 20.1194 45.4125 21.042 45.2629C21.9396 45.1133 22.7874 45.7117 22.937 46.6093C23.0617 47.507 22.4383 48.3298 21.5407 48.4794Z" fill="#FF7676"/>
<path d="M29.5695 46.6092L30.5669 52.9175C30.6417 53.4411 30.2926 53.9648 29.7441 54.0396C29.2205 54.1144 28.6968 53.7653 28.622 53.2167L27.6247 46.9084C27.5499 46.3848 27.899 45.8612 28.4475 45.7864C28.9711 45.7116 29.4947 46.0856 29.5695 46.6092Z" fill="#13B3B7"/>
<path d="M29.1458 48.6291L29.7691 52.5687C29.7941 52.7682 29.6694 52.9676 29.445 53.0175C29.2455 53.0424 29.0461 52.9178 28.9962 52.6934L28.3728 48.7538C28.3479 48.5543 28.4726 48.3548 28.697 48.305C28.9214 48.28 29.0959 48.4296 29.1458 48.6291Z" fill="#26C6C6"/>
<path d="M22.0145 48.0058C21.4161 48.4297 20.5683 48.305 20.1195 47.6817C19.6956 47.0833 19.8203 46.2355 20.4437 45.7867C21.0421 45.3628 21.8898 45.4875 22.3387 46.1108C22.7625 46.7342 22.6129 47.582 22.0145 48.0058Z" fill="#FFBD76"/>
<path d="M21.2166 47.9309C20.7678 48.0057 20.319 47.6815 20.2442 47.2327C20.1694 46.7839 20.4936 46.3351 20.9424 46.2603C21.3912 46.1855 21.84 46.5096 21.9148 46.9584C21.9896 47.4322 21.6904 47.856 21.2166 47.9309Z" fill="#FFD4B0"/>
<path d="M37.9722 51.8205L43.358 48.1552C43.9065 47.7812 44.6546 47.9308 45.0036 48.4793L45.1034 48.604C45.4774 49.1525 45.3278 49.9006 44.7792 50.2496L39.3935 53.9149C38.8449 54.2889 38.0969 54.1393 37.7478 53.5908L37.6481 53.4661C37.2741 52.9425 37.4237 52.1945 37.9722 51.8205Z" fill="#FFE2DE"/>
<path d="M43.2582 58.478C43.7819 59.251 43.5824 60.2733 42.8593 60.772C42.1113 61.2706 41.089 61.0712 40.5903 60.2982C40.0667 59.5253 40.2661 58.503 40.9892 58.0043C41.7373 57.5305 42.7596 57.73 43.2582 58.478Z" fill="#FF7676"/>
<path d="M42.6351 58.2535C43.2834 58.6275 43.5078 59.4504 43.1587 60.0986C42.7847 60.7469 41.9619 60.9713 41.3136 60.6223C40.6653 60.2483 40.4409 59.4254 40.79 58.7771C41.164 58.1289 41.9868 57.8795 42.6351 58.2535Z" fill="#FFBD76"/>
<path d="M42.9094 59.0017C43.1836 59.3757 43.059 59.9243 42.685 60.1736C42.3109 60.423 41.7624 60.3232 41.513 59.9492C41.2637 59.5752 41.3634 59.0267 41.7375 58.7773C42.1364 58.503 42.66 58.6028 42.9094 59.0017Z" fill="#FFD4B0"/>
<path d="M59.8146 54.0398L57.795 60.2235C57.5955 60.8468 56.9223 61.1959 56.2989 60.9964L56.1493 60.9466C55.526 60.7471 55.1769 60.0739 55.3764 59.4505L57.396 53.2669C57.5955 52.6435 58.2687 52.2944 58.8921 52.4939L59.0417 52.5438C59.665 52.7433 60.0141 53.4165 59.8146 54.0398Z" fill="#BF81C6"/>
<path d="M51.5366 52.0451C50.6639 51.7708 50.1901 50.8482 50.4644 50.0005C50.7387 49.1527 51.6612 48.679 52.5588 48.9782C53.4315 49.2525 53.9053 50.175 53.631 51.0228C53.3318 51.8705 52.4092 52.3194 51.5366 52.0451Z" fill="#FF7676"/>
<path d="M58.2437 55.6354L57.0219 59.4254C56.9471 59.6248 56.7476 59.7495 56.5481 59.6747C56.3487 59.5999 56.224 59.4004 56.2988 59.201L57.5206 55.411C57.5954 55.2115 57.7948 55.1118 57.9943 55.1616C58.1938 55.2115 58.2935 55.4359 58.2437 55.6354Z" fill="#D28DDB"/>
<path d="M52.1598 51.8454C51.4118 51.9452 50.7385 51.4465 50.6139 50.6985C50.5141 49.9505 51.0128 49.2772 51.7608 49.1526C52.5089 49.0528 53.1821 49.5515 53.3067 50.2995C53.4065 51.0476 52.9078 51.7208 52.1598 51.8454Z" fill="#FFBD76"/>
<path d="M51.4866 51.4215C51.0378 51.2719 50.7885 50.7982 50.9381 50.3494C51.0877 49.9006 51.5614 49.6512 52.0103 49.8008C52.4591 49.9504 52.7084 50.4242 52.5588 50.873C52.4092 51.3218 51.9355 51.5711 51.4866 51.4215Z" fill="#FFD4B0"/>
<path d="M18.3741 59.4754L24.4081 61.9439C25.0066 62.1932 25.3058 62.8914 25.0564 63.4898L25.0066 63.6394C24.7572 64.2378 24.0591 64.537 23.4606 64.2877L17.4266 61.8192C16.8282 61.5699 16.529 60.8717 16.7783 60.2733L16.8282 60.1237C17.0775 59.5253 17.7757 59.226 18.3741 59.4754Z" fill="#EA50CD"/>
<path d="M15.7809 67.5789C15.4318 68.4267 14.4843 68.8506 13.6615 68.5015C12.8387 68.1524 12.4397 67.2049 12.7888 66.3572C13.1379 65.5094 14.0854 65.0855 14.9082 65.4346C15.731 65.7588 16.13 66.7312 15.7809 67.5789Z" fill="#FF7676"/>
<path d="M19.8453 61.146L23.5355 62.642C23.735 62.7168 23.8348 62.9412 23.735 63.1407C23.6602 63.3402 23.4358 63.4399 23.2363 63.3402L19.5461 61.8441C19.3466 61.7693 19.2469 61.5449 19.3466 61.3455C19.4214 61.1709 19.6458 61.0712 19.8453 61.146Z" fill="#FF88E9"/>
<path d="M15.6315 66.9308C15.6813 67.6788 15.1328 68.3271 14.3847 68.3769C13.6367 68.4268 12.9884 67.8783 12.9386 67.1302C12.8887 66.3822 13.4373 65.7339 14.1853 65.6841C14.9084 65.6342 15.5566 66.1827 15.6315 66.9308Z" fill="#FFBD76"/>
<path d="M15.1577 67.579C14.9832 68.0029 14.4845 68.2273 14.0606 68.0528C13.6368 67.8782 13.4124 67.3795 13.5869 66.9557C13.7614 66.5318 14.2601 66.3074 14.684 66.4819C15.1079 66.6565 15.3323 67.1302 15.1577 67.579Z" fill="#FFD4B0"/>
<path d="M66.2725 78.0014L61.6098 82.5643C61.1361 83.0131 60.3881 83.0131 59.9143 82.5394L59.8146 82.4147C59.3658 81.941 59.3658 81.193 59.8395 80.7441L64.5022 76.1812C64.9759 75.7324 65.7239 75.7324 66.1728 76.2061L66.2725 76.3308C66.7462 76.7796 66.7462 77.5526 66.2725 78.0014Z" fill="#F95050"/>
<path d="M59.8645 72.3913C59.2162 71.743 59.2162 70.6958 59.8645 70.0725C60.5128 69.4491 61.5351 69.474 62.1834 70.1223C62.8317 70.7706 62.8317 71.8178 62.1834 72.4412C61.5351 73.0645 60.5128 73.0396 59.8645 72.3913Z" fill="#FF7676"/>
<path d="M64.1282 78.6747L61.2858 81.4673C61.1361 81.6169 60.8868 81.6169 60.7372 81.4673C60.5876 81.3177 60.5876 81.0683 60.7372 80.9187L63.5797 78.1261C63.7293 77.9765 63.9786 77.9765 64.1282 78.1261C64.3028 78.2757 64.2778 78.5251 64.1282 78.6747Z" fill="#FF886C"/>
<path d="M60.5127 72.5158C59.8145 72.2665 59.4405 71.4935 59.6649 70.7954C59.9142 70.0972 60.6872 69.7232 61.3854 69.9476C62.0835 70.197 62.4575 70.9699 62.2331 71.6681C61.9838 72.3662 61.2108 72.7402 60.5127 72.5158Z" fill="#FFBD76"/>
<path d="M60.1137 71.8178C59.7896 71.4936 59.7896 70.9451 60.1137 70.6209C60.4379 70.2968 60.9864 70.2968 61.3105 70.6459C61.6347 70.97 61.6347 71.5186 61.3105 71.8427C60.9864 72.1669 60.4379 72.1419 60.1137 71.8178Z" fill="#FFD4B0"/>
<path d="M59.3908 96.5773L55.7504 91.1916C55.3764 90.643 55.526 89.895 56.0745 89.5459L56.1992 89.4462C56.7477 89.0722 57.4958 89.2218 57.8448 89.7703L61.4852 95.1561C61.8592 95.7046 61.7096 96.4527 61.1611 96.8017L61.0364 96.9015C60.5128 97.2755 59.7648 97.1259 59.3908 96.5773Z" fill="#13B3B7"/>
<path d="M66.073 91.2912C66.846 90.7676 67.8683 90.9671 68.367 91.6902C68.8656 92.4382 68.6662 93.4605 67.8932 93.9592C67.1203 94.4828 66.098 94.2833 65.5993 93.5602C65.1006 92.8122 65.325 91.7899 66.073 91.2912Z" fill="#FF7676"/>
<path d="M59.1164 94.3581L56.8723 91.0418C56.7476 90.8673 56.7975 90.618 56.972 90.5182C57.1466 90.3936 57.3959 90.4434 57.4956 90.618L59.7397 93.9342C59.8644 94.1087 59.8145 94.3581 59.64 94.4578C59.4904 94.5825 59.241 94.5326 59.1164 94.3581Z" fill="#26C6C6"/>
<path d="M65.8487 91.9145C66.2227 91.2662 67.0455 91.0418 67.6938 91.3909C68.3421 91.7649 68.5665 92.5877 68.2174 93.236C67.8434 93.8843 67.0206 94.1087 66.3723 93.7596C65.6991 93.3856 65.4747 92.5628 65.8487 91.9145Z" fill="#FFBD76"/>
<path d="M66.5966 91.6404C66.9706 91.391 67.5191 91.4908 67.7685 91.8648C68.0178 92.2637 67.9181 92.7873 67.5441 93.0367C67.1701 93.286 66.6215 93.1863 66.3722 92.8123C66.0979 92.4133 66.1976 91.8897 66.5966 91.6404Z" fill="#FFD4B0"/>
<path d="M19.2219 81.542L14.4844 77.0788C14.0107 76.63 13.9858 75.882 14.4346 75.4082L14.5343 75.2836C14.9831 74.8098 15.7311 74.7849 16.2049 75.2337L20.9424 79.6969C21.4161 80.1457 21.441 80.8937 20.9922 81.3675L20.8925 81.4922C20.4437 81.9659 19.6957 81.9908 19.2219 81.542Z" fill="#FFEA80"/>
<path d="M24.5827 74.9095C25.206 74.2363 26.2533 74.1864 26.9015 74.8098C27.5498 75.4331 27.5748 76.4554 26.9265 77.1287C26.3031 77.8019 25.2559 77.8518 24.6076 77.2284C23.9593 76.63 23.9593 75.5827 24.5827 74.9095Z" fill="#FF7676"/>
<path d="M18.4489 79.4227L15.5565 76.68C15.4069 76.5303 15.4069 76.281 15.5316 76.1314C15.6812 75.9818 15.9305 75.9818 16.0801 76.1065L18.9725 78.8492C19.1221 78.9988 19.1221 79.2482 18.9974 79.3978C18.8478 79.5723 18.6234 79.5723 18.4489 79.4227Z" fill="#FFE2DE"/>
<path d="M24.483 75.5829C24.7074 74.8598 25.4554 74.4609 26.1785 74.6853C26.9016 74.9097 27.3005 75.6577 27.0761 76.3808C26.8517 77.1039 26.1037 77.5028 25.3806 77.2784C24.6824 77.054 24.2586 76.306 24.483 75.5829Z" fill="#FFBD76"/>
<path d="M25.1562 75.1588C25.4803 74.8097 26.0039 74.8097 26.353 75.1339C26.7021 75.458 26.7021 75.9816 26.3779 76.3307C26.0538 76.6798 25.5302 76.6798 25.1811 76.3557C24.857 76.0315 24.832 75.483 25.1562 75.1588Z" fill="#FFD4B0"/>
<path d="M30.3674 89.5457L32.2374 83.3122C32.4369 82.6889 33.0852 82.3149 33.7085 82.5143L33.8581 82.5642C34.4815 82.7637 34.8555 83.412 34.656 84.0353L32.786 90.2688C32.5865 90.8922 31.9382 91.2662 31.3149 91.0667L31.1653 91.0168C30.5419 90.8423 30.1928 90.1691 30.3674 89.5457Z" fill="#13B3B7"/>
<path d="M38.6953 91.3661C39.568 91.6404 40.0916 92.538 39.8173 93.3857C39.568 94.2335 38.6454 94.7322 37.7478 94.4579C36.8751 94.1836 36.3515 93.286 36.6258 92.4382C36.9001 91.5905 37.8226 91.0918 38.6953 91.3661Z" fill="#FF7676"/>
<path d="M31.9133 87.9251L33.0603 84.1101C33.1102 83.9107 33.3346 83.786 33.5341 83.8608C33.7335 83.9107 33.8582 84.1351 33.7834 84.3346L32.6364 88.1495C32.5866 88.3489 32.3622 88.4736 32.1627 88.3988C31.9632 88.3489 31.8635 88.1245 31.9133 87.9251Z" fill="#26C6C6"/>
<path d="M38.0721 91.5655C38.7952 91.4408 39.5183 91.9395 39.643 92.6626C39.7676 93.3857 39.2689 94.1088 38.5458 94.2334C37.8228 94.3581 37.0997 93.8594 36.975 93.1364C36.8503 92.4133 37.3241 91.7151 38.0721 91.5655Z" fill="#FFBD76"/>
<path d="M38.7454 91.9893C39.1942 92.114 39.4435 92.5878 39.3189 93.0366C39.1942 93.4854 38.7205 93.7347 38.2716 93.61C37.8228 93.4854 37.5735 93.0116 37.6982 92.5628C37.8228 92.114 38.2966 91.8397 38.7454 91.9893Z" fill="#FFD4B0"/>
<path d="M50.7885 107L44.2807 107.324C43.6324 107.349 43.0589 106.85 43.034 106.202V106.052C43.009 105.404 43.5077 104.83 44.156 104.806L50.6638 104.481C51.3121 104.456 51.8856 104.955 51.9105 105.603V105.753C51.9604 106.401 51.4617 106.975 50.7885 107Z" fill="#EA50CD"/>
<path d="M49.7164 98.547C49.6665 97.6244 50.3647 96.8515 51.2374 96.8016C52.135 96.7517 52.883 97.4499 52.9329 98.3724C52.9827 99.295 52.2846 100.068 51.4119 100.118C50.5143 100.193 49.7663 99.4695 49.7164 98.547Z" fill="#FF7676"/>
<path d="M48.7439 106.102L44.7544 106.302C44.5549 106.302 44.3555 106.152 44.3555 105.928C44.3555 105.728 44.5051 105.529 44.7295 105.529L48.7189 105.329C48.9184 105.329 49.1179 105.479 49.1179 105.703C49.1179 105.903 48.9683 106.102 48.7439 106.102Z" fill="#FF88E9"/>
<path d="M50.1153 99.0955C49.7413 98.4472 49.9657 97.6244 50.614 97.2504C51.2623 96.8764 52.0851 97.1008 52.4591 97.7491C52.8331 98.3973 52.6087 99.2202 51.9604 99.5942C51.3121 99.9682 50.4893 99.7438 50.1153 99.0955Z" fill="#FFBD76"/>
<path d="M50.2898 98.2978C50.2649 97.8241 50.614 97.4251 51.0877 97.4002C51.5615 97.3752 51.9604 97.7243 51.9853 98.1981C52.0103 98.6718 51.6612 99.0708 51.1875 99.0957C50.7137 99.1206 50.3148 98.7716 50.2898 98.2978Z" fill="#FFD4B0"/>
<path d="M27.4003 97.0759L22.5881 92.6875C22.1143 92.2387 22.0644 91.4907 22.5133 91.0169L22.613 90.8923C23.0618 90.4185 23.8098 90.3686 24.2836 90.8175L29.0959 95.2059C29.5696 95.6547 29.6195 96.4027 29.1707 96.8764L29.0709 97.0011C28.647 97.4998 27.899 97.5247 27.4003 97.0759Z" fill="#F95050"/>
<path d="M36.4264 99.9433C37.3489 99.8934 38.1219 100.567 38.1967 101.439C38.2466 102.337 37.5484 103.11 36.6508 103.16C35.7282 103.21 34.9303 102.536 34.8805 101.664C34.8306 100.766 35.5038 99.9931 36.4264 99.9433Z" fill="#FF7676"/>
<path d="M26.6273 94.9814L23.6851 92.2885C23.5355 92.1389 23.5105 91.9145 23.6601 91.7399C23.8097 91.5903 24.0342 91.5654 24.2087 91.715L27.1509 94.4079C27.3005 94.5575 27.3255 94.7819 27.1758 94.9564C27.0262 95.131 26.7769 95.131 26.6273 94.9814Z" fill="#FF886C"/>
<path d="M35.9029 100.342C36.5512 99.9683 37.374 100.193 37.748 100.816C38.122 101.464 37.8976 102.287 37.2743 102.661C36.626 103.035 35.8032 102.811 35.4291 102.187C35.0551 101.564 35.2546 100.716 35.9029 100.342Z" fill="#FFBD76"/>
<path d="M36.7007 100.492C37.1744 100.467 37.5734 100.816 37.5983 101.29C37.6233 101.764 37.2742 102.163 36.8004 102.187C36.3267 102.212 35.9277 101.863 35.9028 101.39C35.8779 100.916 36.2269 100.517 36.7007 100.492Z" fill="#FFEA80"/>
<path d="M29.7691 67.7035L35.1548 64.0382C35.7034 63.6642 36.4514 63.8138 36.8005 64.3624L36.9002 64.487C37.2742 65.0356 37.1246 65.7836 36.5761 66.1327L31.1903 69.798C30.6418 70.172 29.8937 70.0224 29.5447 69.4739L29.4449 69.3492C29.0959 68.8006 29.2205 68.0526 29.7691 67.7035Z" fill="#F95050"/>
<path d="M35.08 74.3611C35.6036 75.1341 35.4041 76.1564 34.681 76.6551C33.933 77.1537 32.9107 76.9543 32.412 76.1813C31.8884 75.4083 32.0879 74.386 32.811 73.8874C33.534 73.3887 34.5563 73.6131 35.08 74.3611Z" fill="#FF7676"/>
<path d="M31.9881 67.4044L35.2794 65.1603C35.4539 65.0356 35.7033 65.0855 35.803 65.2601C35.9277 65.4346 35.8778 65.6839 35.7033 65.7837L32.412 68.0277C32.2374 68.1524 31.9881 68.1025 31.8883 67.928C31.7637 67.7784 31.8135 67.5291 31.9881 67.4044Z" fill="#FF886C"/>
<path d="M34.4567 74.1116C35.105 74.4856 35.3294 75.3084 34.9803 75.9567C34.6063 76.605 33.7835 76.8294 33.1352 76.4803C32.4869 76.1063 32.2625 75.2835 32.6116 74.6352C32.9856 73.9869 33.8084 73.7625 34.4567 74.1116Z" fill="#FFBD76"/>
<path d="M34.731 74.8845C34.9804 75.2585 34.8806 75.8071 34.5066 76.0564C34.1326 76.3058 33.584 76.206 33.3347 75.832C33.0854 75.458 33.1851 74.9095 33.5591 74.6601C33.9331 74.3859 34.4567 74.4856 34.731 74.8845Z" fill="#FFD4B0"/>
<path d="M53.0573 68.5264L54.0048 74.9594C54.1046 75.6077 53.6557 76.2061 53.0075 76.3058L52.8579 76.3308C52.2096 76.4305 51.6112 75.9817 51.5114 75.3334L50.5639 68.9004C50.4642 68.2521 50.913 67.6537 51.5613 67.554L51.7109 67.529C52.3342 67.4044 52.9576 67.8781 53.0573 68.5264Z" fill="#EA50CD"/>
<path d="M44.7295 70.3965C43.8319 70.5211 42.9842 69.9227 42.8595 69.0251C42.7348 68.1275 43.3582 67.3046 44.2807 67.18C45.1783 67.0553 46.0261 67.6537 46.1508 68.5514C46.2754 69.424 45.6521 70.2469 44.7295 70.3965Z" fill="#FF7676"/>
<path d="M52.3344 70.6458L52.9079 74.5853C52.9328 74.7848 52.7832 74.9843 52.5838 75.0092C52.3843 75.0342 52.1848 74.8846 52.1599 74.6851L51.5864 70.7455C51.5615 70.546 51.7111 70.3466 51.9105 70.3216C52.11 70.2718 52.3095 70.4214 52.3344 70.6458Z" fill="#FF88E9"/>
<path d="M45.2281 69.9227C44.6047 70.3466 43.7819 70.197 43.358 69.5986C42.9341 68.9752 43.0837 68.1524 43.6822 67.7285C44.3055 67.3046 45.1283 67.4542 45.5522 68.0526C45.9761 68.676 45.8265 69.4988 45.2281 69.9227Z" fill="#FFBD76"/>
<path d="M44.4303 69.8478C43.9566 69.9226 43.5327 69.5985 43.4828 69.1247C43.408 68.651 43.7322 68.2271 44.2059 68.1772C44.6797 68.1024 45.1036 68.4266 45.1534 68.9003C45.2033 69.3491 44.8791 69.773 44.4303 69.8478Z" fill="#FFEA80"/>
<path d="M49.8159 82.6392L49.4419 89.147C49.417 89.7953 48.8435 90.294 48.1952 90.269H48.0456C47.3973 90.2441 46.8986 89.6706 46.9236 89.0223L47.2976 82.5145C47.3225 81.8662 47.896 81.3676 48.5443 81.3925H48.6939C49.3671 81.4174 49.8658 81.966 49.8159 82.6392Z" fill="#FFEA80"/>
<path d="M41.3136 82.8136C40.391 82.7637 39.6929 81.9908 39.7427 81.0932C39.7926 80.1955 40.5656 79.5223 41.4881 79.5722C42.4107 79.622 43.1088 80.395 43.059 81.2926C43.0091 82.1653 42.2362 82.8635 41.3136 82.8136Z" fill="#FF7676"/>
<path d="M45.7018 4.52081C28.2729 -5.22841 15.5815 3.14944 10.4201 7.81211C10.7442 8.08638 11.0684 8.33573 11.4175 8.61C16.6786 6.29113 27.1509 3.14944 38.0221 8.16119C41.5378 9.7819 44.7543 12.7241 47.6965 16.5889C49.4669 15.7162 50.7136 14.4695 51.312 12.8987C51.7608 11.6769 51.7857 10.3554 51.4117 8.95908C49.6414 7.16382 47.7215 5.66778 45.7018 4.52081Z" fill="#FF9C9C"/>
<path d="M48.719 84.5591L48.4946 88.5486C48.4946 88.748 48.2951 88.9226 48.0956 88.9226C47.8962 88.9226 47.7216 88.7231 47.7216 88.5236L47.946 84.5342C47.946 84.3347 48.1455 84.1602 48.345 84.1602C48.5444 84.1602 48.719 84.3596 48.719 84.5591Z" fill="#FFE2DE"/>
<path d="M41.8871 82.4397C41.2139 82.7389 40.416 82.4148 40.1168 81.7415C39.8176 81.0683 40.1417 80.2704 40.8149 79.9712C41.4882 79.672 42.286 79.9961 42.5853 80.6694C42.8845 81.3675 42.5603 82.1654 41.8871 82.4397Z" fill="#FFBD76"/>
<path d="M41.1141 82.2153C40.6403 82.1904 40.2913 81.7915 40.3162 81.3177C40.3411 80.844 40.7401 80.4949 41.2138 80.5198C41.6876 80.5447 42.0366 80.9437 42.0117 81.4174C41.9868 81.8912 41.5878 82.2403 41.1141 82.2153Z" fill="#FFD4B0"/>
<path d="M64.3281 113.383C67.2454 122.284 71.5839 130.837 74.1521 139.813C73.1049 130.637 67.744 118.42 65.1758 112.984C64.9015 113.109 64.6273 113.233 64.3281 113.383Z" fill="#FFC994"/>
<path d="M63.8792 113.607C63.1561 113.956 62.433 114.28 61.71 114.605C65.1509 125.351 71.0104 135.499 73.9027 146.395C74.1521 145.473 74.2767 144.426 74.3017 143.304C71.8332 133.106 67.0209 123.631 63.8792 113.607Z" fill="#FFC994"/>
<path d="M61.2861 114.779C60.6378 115.053 59.9895 115.328 59.3412 115.577C61.2113 121.711 63.979 127.47 66.622 133.355C68.1928 136.846 69.6639 140.386 70.7361 144.052C71.2597 145.872 71.7335 147.717 72.1574 149.562C72.681 149.038 73.1049 148.44 73.4041 147.717C70.3372 136.422 64.6771 126.049 61.2861 114.779Z" fill="#FFC994"/>
<path d="M54.479 117.048C53.8307 117.173 53.1824 117.297 52.5092 117.372C54.5787 125.625 59.5157 142.556 66.223 148.34C64.6521 144.825 63.0563 141.309 61.5603 137.768C58.7178 131.061 56.3241 124.129 54.479 117.048Z" fill="#FFC994"/>
<path d="M58.8425 115.777C58.269 115.976 57.6955 116.176 57.122 116.375C59.1167 122.633 61.7099 128.742 64.0287 134.876C66.0235 140.112 67.8935 145.348 70.3371 150.31C70.6363 150.335 70.9355 150.335 71.2596 150.31C71.4342 150.211 71.5838 150.111 71.7334 149.986C71.2347 147.892 70.7609 145.822 70.1376 143.753C68.9906 139.913 67.3948 136.247 65.7492 132.607C63.2558 127.122 60.513 121.611 58.8425 115.777Z" fill="#FFC994"/>
<path d="M56.6981 116.5C56.1246 116.674 55.5511 116.824 54.9527 116.948C56.5734 123.007 58.4684 128.967 60.8122 134.801C62.1337 138.092 63.6048 141.359 65.051 144.6C65.5497 145.722 66.0484 147.243 66.6717 148.764C67.5693 149.462 68.5168 149.936 69.4643 150.185C67.32 145.797 65.824 140.985 64.1284 136.497C61.66 129.864 58.7676 123.282 56.6981 116.5Z" fill="#FFC994"/>
<path d="M21.416 3.3986C20.9672 5.09412 26.5773 3.09939 33.3843 4.44583C39.6179 5.69254 41.3134 6.26602 41.5627 4.94452C41.8121 3.62301 37.2242 1.80282 32.3122 1.20441C29.1954 0.80546 21.9645 1.27921 21.416 3.3986Z" fill="#FFBBBB"/>
</svg>
