<svg width="151" height="151" viewBox="0 0 151 151" fill="none" xmlns="http://www.w3.org/2000/svg">
<g clip-path="url(#clip0)">
<path d="M75.4746 150.33C116.987 150.33 150.64 116.677 150.64 75.165C150.64 33.6525 116.987 0 75.4746 0C33.9621 0 0.30957 33.6525 0.30957 75.165C0.30957 116.677 33.9621 150.33 75.4746 150.33Z" fill="#F6D738"/>
<path d="M75.4746 138.966C110.711 138.966 139.276 110.402 139.276 75.165C139.276 39.9284 110.711 11.3635 75.4746 11.3635C40.238 11.3635 11.6731 39.9284 11.6731 75.165C11.6731 110.402 40.238 138.966 75.4746 138.966Z" fill="#F4C544"/>
<path d="M108.855 20.7148C115.199 30.6342 118.892 42.4239 118.892 55.0658C118.892 90.2927 90.3416 118.867 55.0909 118.867C42.8515 118.867 31.4169 115.411 21.7106 109.445C33.0504 127.153 52.8893 138.872 75.4743 138.872C110.701 138.872 139.276 110.321 139.276 75.094C139.276 52.0829 127.107 31.9363 108.855 20.7148Z" fill="#EBBC34"/>
<path d="M22.8473 81.0124C22.8473 49.9048 48.0601 24.6919 79.1678 24.6919C97.3494 24.6919 113.519 33.3093 123.817 46.6851C114.087 29.8055 95.8579 18.4183 74.9775 18.4183C43.8698 18.4183 18.657 43.6312 18.657 74.7388C18.657 87.6648 23.013 99.5729 30.3283 109.066C25.5698 100.804 22.8473 91.2159 22.8473 81.0124Z" fill="#F7DB5E"/>
<path d="M90.3877 80.0793C90.3658 83.8191 88.9725 86.9904 86.2408 89.5492C83.7615 91.8784 80.7555 93.0485 77.3655 93.0376C73.6136 93.0157 70.3992 91.6269 67.832 88.8822C65.4733 86.3561 64.2995 83.338 64.3433 79.8934C64.4201 72.8401 70.1578 67.0553 77.4314 67.0553C84.5733 67.0444 90.4755 72.9823 90.3877 80.0793ZM77.3546 85.9296C80.5032 85.9953 83.2787 83.3927 83.2897 80.1011C83.3007 76.8096 80.6787 74.1961 77.4533 74.1633C74.1731 74.1195 71.4743 76.7331 71.4524 80.0246C71.4304 83.2724 74.0743 85.9515 77.3546 85.9296Z" fill="#D49A34"/>
<path d="M60.6353 75.4648C60.6353 77.0395 60.6353 78.6141 60.6353 80.1888C60.6353 80.5169 60.5914 80.8449 60.5804 81.173C60.5475 81.7963 60.4378 82.4087 60.2842 82.9992C60.1306 83.6006 59.9112 84.2021 59.7027 84.7926C59.4833 85.4268 59.1762 86.0173 58.8361 86.586C58.485 87.1765 58.101 87.756 57.6403 88.2809C57.3331 88.6309 57.0369 88.9808 56.7077 89.3089C56.0495 89.965 55.3364 90.5336 54.5575 91.0366C53.7895 91.5287 52.9667 91.9443 52.111 92.2504C51.0908 92.6113 50.0485 92.8956 48.9624 92.9612C48.5346 92.994 48.1067 93.0378 47.6789 93.0487C47.3388 93.0597 46.9987 93.0378 46.6696 93.005C46.2746 92.9722 45.8907 92.9066 45.5067 92.8628C44.3109 92.6988 43.1699 92.327 42.0838 91.824C41.3817 91.4959 40.7015 91.1132 40.0762 90.6539C38.672 89.6369 37.4981 88.4012 36.5656 86.9359C36.1816 86.3126 35.8305 85.6783 35.5673 85.0004C35.0626 83.71 35.293 82.2009 36.3133 81.173C36.8728 80.6153 37.52 80.2435 38.2989 80.156C39.385 80.0248 40.3834 80.2544 41.2281 81.009C41.6231 81.3698 41.9302 81.7854 42.1497 82.2775C42.6762 83.4913 43.4881 84.4645 44.651 85.1316C45.5177 85.6346 46.4502 85.908 47.4704 85.9299C48.4029 85.9517 49.2916 85.7877 50.1253 85.3831C50.6519 85.1316 51.1456 84.8145 51.5735 84.4098C52.1659 83.8631 52.6376 83.2398 52.9777 82.5071C53.3068 81.8072 53.5043 81.0746 53.5372 80.2982C53.5701 79.5765 53.5811 78.8657 53.5811 78.1439C53.5921 75.5851 53.5921 73.0262 53.5811 70.4674C53.5811 69.8987 53.7128 69.3629 53.9761 68.8708C54.3491 68.1819 54.9086 67.657 55.6217 67.3289C56.1921 67.0665 56.8065 66.9462 57.4318 67.0227C58.1998 67.1102 58.9129 67.3617 59.4614 67.9304C59.6369 68.1163 59.8344 68.2912 59.988 68.4881C60.4378 69.1004 60.6572 69.7894 60.6572 70.5548C60.6353 72.1842 60.6353 73.8245 60.6353 75.4648Z" fill="#D49A34"/>
<path d="M99.9761 85.6672C99.9761 84.344 99.9651 83.0209 99.9761 81.7086C99.9761 81.4462 99.8993 81.2603 99.7128 81.0853C97.1786 78.5593 94.6443 76.0332 92.1101 73.5072C91.9017 73.2994 91.6932 73.0807 91.4957 72.8401C91.1666 72.4355 90.9691 71.9762 90.8485 71.4732C90.7059 70.8717 90.7168 70.2812 90.8814 69.6907C91.0898 68.9362 91.4957 68.291 92.143 67.8317C92.4612 67.613 92.7793 67.4053 93.1523 67.2959C93.7338 67.1209 94.3262 67.0553 94.9296 67.1647C95.7085 67.3178 96.3558 67.6896 96.9153 68.2473C98.9997 70.3359 101.084 72.4136 103.18 74.4913C103.509 74.8194 103.542 74.8194 103.882 74.4913C105.999 72.3808 108.105 70.2812 110.223 68.1707C110.563 67.8317 110.947 67.5584 111.397 67.3834C112.044 67.1428 112.691 67.0225 113.382 67.1866C113.591 67.2412 113.81 67.285 114.019 67.3615C114.808 67.6568 115.423 68.1707 115.84 68.9034C116.224 69.5595 116.366 70.2703 116.289 71.0358C116.224 71.67 116.026 72.2387 115.642 72.7526C115.533 72.8948 115.412 73.0369 115.28 73.1682C112.713 75.727 110.146 78.2859 107.579 80.8447C107.524 80.8994 107.469 80.965 107.403 81.0197C107.173 81.2275 107.085 81.479 107.085 81.7961C107.096 84.3331 107.085 86.8591 107.096 89.3961C107.096 90.0413 106.964 90.6427 106.679 91.2114C106.46 91.6379 106.153 91.9987 105.769 92.294C105.077 92.8407 104.288 93.136 103.399 93.0813C101.984 92.9938 100.931 92.3158 100.305 91.0255C100.064 90.5225 99.9761 89.9866 99.9761 89.4399C99.9761 88.1714 99.9761 86.9247 99.9761 85.6672Z" fill="#D49A34"/>
</g>
<defs>
<clipPath id="clip0">
<rect width="150.33" height="150.33" fill="white" transform="translate(0.30957)"/>
</clipPath>
</defs>
</svg>
