<svg width="137" height="151" viewBox="0 0 137 151" fill="none" xmlns="http://www.w3.org/2000/svg">
<path d="M102.7 126.206C99.6 129.506 96.1 132.106 92.4 134.206C69.5 146.606 37.1 136.506 31.7 126.406C26.4 116.506 32.7 80.806 42.8 71.106C45 69.006 49.7 67.406 55.4 66.506C67.2 64.606 83 65.106 89 68.106C99.2 73.206 113.9 114.106 102.7 126.206Z" fill="#BA8867"/>
<path opacity="0.2" d="M72.7 129.206C71.8 129.306 70.9 129.606 70 129.906C70 129.306 70 128.706 70 128.106C70.3 128.106 70.5 128.106 70.8 128.106C71.2 128.106 71.2 127.506 70.8 127.506C70.5 127.506 70.2 127.506 70 127.506C70 125.306 69.9 123.206 69.9 121.006C69.9 115.706 69.8 110.406 69.8 105.006C70 105.106 70.2 105.306 70.5 105.406C70.8 105.506 71.1 105.206 70.9 105.006C70.6 104.706 70.3 104.506 69.9 104.206V104.106C70.7 103.806 71.4 103.606 72.2 103.206C72.5 103.106 72.3 102.706 72 102.706C71.3 102.806 70.6 103.106 69.9 103.306C69.9 103.106 69.9 102.906 69.9 102.606C69.9 97.8061 69.9 93.0061 69.8 88.1061C70.3 88.0061 70.8 87.8062 71.2 87.6061C71.4 87.5061 71.3 87.2061 71.1 87.2061C70.7 87.2061 70.3 87.3062 69.8 87.4062C69.8 86.5062 69.8 85.6061 69.8 84.7061C70.3 84.6061 70.8 84.6062 71.2 84.4062C71.4 84.3062 71.4 83.9062 71.1 83.9062C70.7 83.9062 70.2 83.9062 69.7 84.0062C69.7 81.2062 69.6 78.4061 69.6 75.6061C70 75.6061 70.3 75.7062 70.7 75.6061C71 75.6061 71 75.2062 70.8 75.1061C70.4 75.0061 70 74.9062 69.6 74.8062C69.5 71.7062 69.4 68.5062 69.2 65.4062C69.2 65.1062 68.8 65.1062 68.8 65.4062C68.7 68.5062 68.6 71.6061 68.6 74.7061C67.9 74.7061 67.2 74.6061 66.6 74.6061C66.4 74.6061 66.3 74.9062 66.5 75.0062C67.1 75.1062 67.8 75.3062 68.5 75.4062C68.5 78.3062 68.5 81.3061 68.5 84.2061C68 84.3061 67.6 84.4062 67.1 84.5062C66.9 84.5062 67 84.8062 67.1 84.8062C67.5 84.8062 68 84.7061 68.4 84.7061C68.4 85.7061 68.4 86.7062 68.4 87.6061C67.8 87.8062 67.1 88.1062 66.5 88.3062C66.3 88.4062 66.4 88.6061 66.6 88.6061C67.2 88.5061 67.8 88.4062 68.4 88.3062C68.5 93.2062 68.5 98.0061 68.6 102.906C68.6 103.106 68.6 103.206 68.6 103.406C67.9 103.106 67.3 102.806 66.6 102.706C66.4 102.606 66.3 102.906 66.5 103.006C67.1 103.306 67.6 103.606 68.2 103.906C67.6 104.206 67.1 104.506 66.5 104.806C66.3 104.906 66.5 105.106 66.6 105.106C67.3 104.806 67.9 104.606 68.6 104.306C68.6 110.106 68.7 115.806 68.8 121.606C68.8 123.506 68.8 125.406 68.8 127.306C68.1 127.306 67.5 127.406 66.8 127.406C66.6 127.406 66.5 127.806 66.8 127.806C67.5 127.906 68.1 127.906 68.8 128.006C68.8 128.706 68.8 129.506 68.8 130.206C68.1 130.406 67.4 130.606 66.7 130.806C66.4 130.906 66.5 131.306 66.8 131.206C67.4 131.106 68.1 131.006 68.8 130.906C68.8 133.806 68.9 136.806 69.3 139.706C69.3 140.006 69.7 139.906 69.8 139.606C70.1 136.706 70.1 133.606 70.1 130.606C71.1 130.406 72.1 130.106 72.9 129.606C73 129.606 72.9 129.206 72.7 129.206Z" fill="#594639"/>
<path opacity="0.2" d="M92.4 134.106C69.5 146.506 37.1 136.406 31.7 126.306C26.4 116.406 32.7 80.706 42.8 71.006C45 68.906 49.7 67.306 55.4 66.406C50.1 72.806 47.1 80.606 45.4 88.806C43.7 97.006 42.5 106.306 45.2 114.406C47.8 122.506 54.5 127.906 62.2 131.006C71.7 134.906 82.2 135.706 92.4 134.106Z" fill="#594639"/>
<path d="M69 87.406C68.6 88.006 68.3 88.606 68 89.206C67.3 90.606 66.7 92.106 66.3 93.606C64.2 100.506 64.2 108.306 64.2 108.306L57.9 102.106C58.2 100.506 58.6 99.006 59.2 97.706C61.7 91.606 66.4 87.506 66.4 87.506H66.9L69 87.406Z" fill="#CC6666"/>
<path d="M78.3 101.906L72.1 108.206C72.1 108.206 71.9 99.806 69.5 92.706C69.1 91.506 68.6 90.306 68 89.206C67.7 88.606 67.3 88.006 66.9 87.406H69H69.5C69.5 87.406 71.8 89.306 74.1 92.506C75.9 95.006 77.6 98.306 78.3 101.906Z" fill="#CC6666"/>
<path opacity="0.2" d="M74.2 92.606C72.6 92.406 71.1 92.506 69.5 92.806C69.1 91.606 68.6 90.406 68 89.306C67.3 90.706 66.7 92.206 66.3 93.706C66 93.806 65.7 93.906 65.3 94.106C63.1 95.006 60.9 96.106 59.1 97.706C61.6 91.606 66.3 87.506 66.3 87.506H66.8H68.9H69.4C69.6 87.406 71.9 89.406 74.2 92.606Z" fill="#594639"/>
<path d="M66.4 87.5061C65.9 88.2061 65 88.9061 63.9 89.6061C61.2 91.2061 57.4999 92.3061 55.7999 91.5061C53.4999 90.4061 54.9999 88.2061 55.0999 87.5061C55.1999 86.8061 48.3 77.9061 53.2 76.1061C54.8 75.5061 56.6999 76.3061 58.5999 77.6061C58.9999 77.8061 59.3 78.1061 59.7 78.4061C63.2 81.1061 66.4 85.2061 66.4 85.2061V87.5061Z" fill="#CC6666"/>
<path opacity="0.2" d="M66.0999 85.306C64.9999 84.306 61.3999 82.806 60.5999 85.006C60.2999 85.906 60.8999 86.906 61.4999 87.406C62.4999 88.106 63.6999 88.106 64.7999 87.706C64.9999 87.606 64.8999 87.306 64.6999 87.406C63.7999 87.706 62.6999 87.606 61.9999 86.906C61.3999 86.406 60.9999 85.506 61.5999 85.006C62.6999 84.206 64.7999 85.106 65.7999 85.706C66.0999 85.806 66.2999 85.506 66.0999 85.306Z" fill="#594639"/>
<path opacity="0.2" d="M63.8 89.506C61.1 91.106 57.4 92.206 55.7 91.406C53.4 90.306 54.9 88.106 55 87.406C55.1 86.706 48.2 77.806 53.1 76.006C54.7 75.406 56.6 76.206 58.5 77.506C57.2 77.106 55.6 77.306 55.5 79.306C55.4 80.606 57.9 83.806 58.2 84.906C58.5 86.206 57.7 86.906 57.6 88.106C57.3 92.106 61.7 90.406 63.8 89.506Z" fill="#594639"/>
<path d="M84.3 79.306C83.8 82.506 80.8 86.706 80.9 87.206C81 87.906 82.5 90.106 80.3 91.206C79.2 91.706 77.1 91.406 75 90.706C72.8 89.906 70.5 88.606 69.7 87.406V85.006C69.7 85.006 77.9 74.106 82.7 75.806C84.2 76.406 84.6 77.706 84.3 79.306Z" fill="#CC6666"/>
<path opacity="0.2" d="M69.5 85.306C70.6 84.306 74.2 82.806 75 85.006C75.3 85.906 74.7 86.906 74.1 87.406C73.1 88.106 71.9 88.106 70.8 87.706C70.6 87.606 70.7 87.306 70.9 87.406C71.8 87.706 72.9 87.606 73.6 86.906C74.2 86.406 74.6 85.506 74 85.006C72.9 84.206 70.8 85.106 69.8 85.706C69.6 85.806 69.4 85.506 69.5 85.306Z" fill="#594639"/>
<path opacity="0.2" d="M84.3 79.306C84.3 79.206 84.2 79.106 84.1 78.906C83 77.206 81.1 77.506 79.6 78.306C78.1 79.106 76.8 80.406 75.8 81.806C73.8 84.506 72.9 88.106 75 90.706C72.8 89.906 70.5 88.606 69.7 87.406V85.006C69.7 85.006 77.9 74.106 82.7 75.806C84.2 76.406 84.6 77.706 84.3 79.306Z" fill="#594639"/>
<path d="M70.2 88.806C69.6 89.106 69.2 89.106 68.8 89.006C68.5 88.906 68.2 88.806 68 88.806C67.5 88.806 66.9 89.406 65.8 88.806C64.7 88.206 63.8 83.206 65.1 82.406C66.3 81.606 67.5 82.206 68 82.206C68.2 82.206 68.5 82.106 68.9 82.006C69.4 81.906 70.1 81.906 70.8 82.306C72 83.206 71.2 88.206 70.2 88.806Z" fill="#CC6666"/>
<path opacity="0.2" d="M68.9 82.106C68.9 82.206 68.9 82.206 68.9 82.306C68.8 82.406 68.7 82.506 68.6 82.506C67.4 83.006 66.7 84.306 66.8 85.706C66.8 86.206 66.9 86.806 67.1 87.306C67.5 88.306 68.1 88.306 68.8 89.106C68.9 89.206 68.9 89.206 69 89.306C68.7 89.206 68.4 89.106 68.2 89.106C67.7 89.106 67.1 89.706 66 89.106C64.9 88.506 64 83.506 65.3 82.706C66.5 81.906 67.7 82.506 68.2 82.506C68.1 82.306 68.5 82.206 68.9 82.106Z" fill="#594639"/>
<path d="M51.4 130.006C50.5 134.306 44.2 141.006 37.4 145.506C33.4 148.106 29.2 150.006 25.8 150.306C16.7 150.906 0 137.506 0 125.706C0.1 113.906 12.7 109.406 24 115.806C28.9 118.506 31.2 114.606 35.3 113.406C35.8 113.306 36.3 113.106 36.8 113.106C41.9 112.506 53.5 120.106 51.4 130.006Z" fill="#BA8867"/>
<path d="M23.3 146.406C27.7 145.406 19 115.906 6.89998 120.606C-5.30002 125.306 14.8 148.306 23.3 146.406Z" fill="#E8BB9C"/>
<path opacity="0.2" d="M51.2 126.906C51 127.006 50.8 127.206 50.6 127.306C50.6 127.006 50.6 126.706 50.5 126.306C50.5 126.106 50.2 126.106 50.2 126.306C50.2 126.706 50.2 127.206 50.1 127.606C49.8 127.506 49.5 127.406 49.3 127.406C49.2 127.406 49.2 127.506 49.3 127.506C49.5 127.606 49.7 127.706 49.9 127.806C48.8 128.706 47.7 129.606 46.7 130.406C46.5 130.206 46.3 130.006 46.1 129.806C46 129.706 45.7 129.806 45.8 130.006C46 130.206 46.1 130.506 46.3 130.706C44.8 131.906 43.3 133.206 41.7 134.306C41 134.806 40.3 135.306 39.6 135.806C39.4 135.606 39.2 135.306 39 135.206C38.8 135.106 38.6 135.306 38.8 135.406C39 135.606 39.1 135.806 39.2 136.106C38.9 136.306 38.7 136.406 38.4 136.606C38.3 136.306 38.1 136.006 38 135.806C37.9 135.606 37.5 135.806 37.7 136.006C37.9 136.306 38 136.606 38 136.906C36.1 138.206 34.1 139.406 32.2 140.706L32.1 140.806C32.1 138.506 31.7 136.206 31.2 133.906C31.4 133.906 31.6 133.906 31.7 133.906C31.9 133.906 32 133.606 31.8 133.506C31.7 133.506 31.5 133.506 31.4 133.406C31.7 133.106 32.1 132.806 32.3 132.406C32.4 132.306 32.2 132.106 32.1 132.206C31.7 132.506 31.4 132.806 31 133.106C30.5 131.106 29.8 129.206 28.9 127.406C27.3 124.006 24.8 120.306 21.7 117.706C22 117.606 22.3 117.406 22.5 117.206C22.6 117.106 22.5 116.906 22.4 116.906C22 116.906 21.6 117.106 21.3 117.306C21.1 117.106 20.8 116.906 20.6 116.706C20.8 116.506 21 116.206 21.1 115.906C21.1 115.806 21 115.706 20.9 115.706C20.6 115.906 20.5 116.106 20.3 116.406C18.3 115.106 16.1 114.206 13.7 114.206V114.306C16 114.506 18.1 115.406 20.1 116.806C19.9 117.106 19.8 117.306 19.6 117.606C19.5 117.706 19.7 117.906 19.8 117.706C20 117.506 20.2 117.206 20.4 117.006C20.6 117.106 20.8 117.306 21 117.506C20.7 117.706 20.5 117.906 20.3 118.006C20.1 118.106 20.3 118.406 20.5 118.306C20.8 118.106 21.1 117.906 21.4 117.806C24.7 120.606 27.3 124.706 28.8 128.106C29.6 129.806 30.1 131.406 30.6 133.206C30.1 133.206 29.6 133.206 29.1 133.106C29 133.106 28.9 133.306 29 133.306C29.5 133.406 29.9 133.506 30.4 133.606C30 134.006 29.6 134.306 29.2 134.706C29.1 134.806 29.2 134.906 29.3 134.906C29.7 134.606 30.2 134.306 30.6 134.006C31.4 137.406 31.6 141.006 31.3 144.606C31 144.606 30.7 144.606 30.4 144.606C30.2 144.606 30.2 144.906 30.4 144.906C30.7 144.906 31 144.906 31.3 144.906C31.2 145.906 31.1 146.806 31 147.806C31 148.106 31.3 148.206 31.4 147.906C31.7 146.906 31.8 145.906 32 144.906H32.1C32.4 144.906 32.4 144.506 32.1 144.506C32.2 143.206 32.3 142.006 32.3 140.706C32.3 140.806 32.4 140.906 32.6 140.806C34.5 139.906 36.5 138.806 38.4 137.606C38.4 137.806 38.4 138.006 38.4 138.206C38.4 138.406 38.8 138.406 38.8 138.206C38.9 137.906 38.9 137.606 38.9 137.206C39.2 137.006 39.4 136.806 39.7 136.706C39.7 136.906 39.8 137.106 39.8 137.306C39.9 137.506 40.2 137.606 40.3 137.306C40.4 137.006 40.3 136.706 40.2 136.306C42.6 134.706 44.8 133.006 47 131.106C47.1 131.306 47.3 131.406 47.4 131.606C47.6 131.806 48.1 131.506 47.9 131.206C47.8 131.006 47.6 130.806 47.5 130.706C48.5 129.806 49.4 129.006 50.3 128.106C50.3 128.206 50.3 128.306 50.3 128.506C50.3 128.706 50.7 128.806 50.7 128.606C50.8 128.406 50.8 128.106 50.8 127.906C51 128.006 51.2 128.106 51.4 128.206C51.6 128.306 51.7 128.106 51.6 127.906C51.4 127.706 51.2 127.606 50.9 127.506C51.1 127.206 51.4 127.006 51.6 126.706C51.6 127.006 51.4 126.806 51.2 126.906Z" fill="#594639"/>
<path opacity="0.2" d="M37.4 145.506C33.4 148.106 29.2 150.006 25.8 150.306C16.7 150.906 0 137.506 0 125.706C0.1 113.906 12.7 109.406 24 115.806C28.9 118.506 31.2 114.606 35.3 113.406C34.6 114.306 33.9 115.106 33.2 116.006C32.3 117.006 31.5 117.706 30.2 117.906C28.8 118.106 27.3 117.606 26 117.406C24.2 117.106 22.4 116.906 20.5 116.906C16.8 117.006 13 117.906 10 120.106C6.1 123.006 6.6 127.406 8.1 131.506C10.6 138.506 16.5 144.006 23.7 146.006C28.5 147.306 33 146.906 37.4 145.506Z" fill="#594639"/>
<path d="M136.6 125.706C136.6 131.606 132.5 137.906 127.2 142.606C121.9 147.406 115.4 150.606 110.9 150.306C101.8 149.706 86.7 137.006 85.2 130.106C83.2 120.806 93.4 113.506 98.8 113.106C99.2 113.106 99.5 113.106 99.8 113.106C105 113.706 107.2 118.906 112.6 115.906C123.9 109.406 136.5 113.906 136.6 125.706Z" fill="#BA8867"/>
<path d="M113.3 146.406C108.9 145.406 117.6 115.906 129.7 120.606C141.9 125.306 121.8 148.306 113.3 146.406Z" fill="#E8BB9C"/>
<path opacity="0.2" d="M125.2 114.506C123.9 114.806 122.6 115.306 121.4 115.806C121.6 115.906 121.8 115.906 122 116.106C122.1 116.206 122 116.306 121.9 116.306C121.6 116.306 121.3 116.206 121.1 116.006C121.1 116.506 121.1 116.906 120.9 117.306C120.8 117.506 120.6 117.406 120.5 117.306C120.5 116.906 120.5 116.606 120.5 116.206C118.7 117.206 117.1 118.406 115.6 119.906C115.6 120.006 115.7 120.006 115.7 120.106C115.8 120.306 115.5 120.406 115.4 120.206C113.5 122.106 111.9 124.306 110.6 126.606C109.6 128.406 108.4 130.506 107.5 132.806C107.7 132.906 107.9 133.006 108.1 133.106C108.2 133.206 108.1 133.406 108 133.406C107.8 133.306 107.6 133.306 107.4 133.206C107.3 133.606 107.1 133.906 107 134.306C107.3 134.306 107.5 134.306 107.7 134.406C107.9 134.406 107.9 134.706 107.7 134.806C107.4 134.906 107.1 134.906 106.8 134.906C105.3 139.506 105.1 144.306 108.2 147.906C108.4 148.106 108.1 148.406 107.9 148.206C104.3 144.806 104.7 139.606 106.2 134.906C106.1 134.906 106.1 134.906 106 134.906C105.8 134.906 105.8 134.606 106 134.606C106.1 134.606 106.2 134.606 106.3 134.606C106.4 134.106 106.6 133.706 106.8 133.206C106.6 133.106 106.3 133.006 106.1 132.906C106 132.906 106.1 132.606 106.2 132.706C106.4 132.806 106.7 132.906 106.9 133.006C107.6 131.106 108.5 129.406 109.3 127.906C110.8 125.106 112.8 122.406 115.1 120.106C115 119.806 114.8 119.406 114.7 119.106C114.6 119.006 114.8 118.806 114.9 119.006C115 119.306 115.2 119.606 115.4 119.806C117 118.406 118.7 117.106 120.6 116.206C120.3 116.106 120 115.906 119.7 115.806C119.6 115.806 119.7 115.606 119.8 115.706C120.1 115.806 120.4 115.906 120.6 116.006C120.6 115.606 120.7 115.206 120.7 114.806C120.7 114.606 121 114.606 121 114.806C121 115.206 121 115.606 121 115.906C122.3 115.306 123.6 114.806 125 114.506C125.3 114.206 125.4 114.406 125.2 114.506Z" fill="#594639"/>
<path opacity="0.2" d="M104.7 143.406C104.9 143.506 104.7 143.906 104.5 143.706C103 142.806 101.5 141.906 100 140.806C99.9 141.206 99.9 141.606 99.8 142.006C99.8 142.106 99.7 142.106 99.7 142.006C99.7 141.606 99.7 141.106 99.7 140.606L99.6 140.506C99.3 140.706 99 140.806 98.6 141.006C98.5 141.006 98.5 140.906 98.5 140.906C98.8 140.706 99 140.606 99.3 140.406C96.3 138.306 93.4 135.806 90.8 133.106C90.6 133.306 90.5 133.606 90.3 133.906C90.2 134.006 90.1 133.906 90.1 133.806C90.2 133.506 90.4 133.206 90.5 132.906C90.2 132.606 90 132.406 89.7 132.106C89.5 132.306 89.4 132.506 89.2 132.706C89.1 132.806 89 132.706 89 132.606C89.1 132.406 89.2 132.106 89.3 131.806C87.8 130.106 86.3 128.206 85.1 126.306C85.1 126.206 85.2 126.206 85.2 126.206C86.5 128.006 88 129.706 89.5 131.306C89.6 131.006 89.8 130.806 90 130.606C90.2 130.406 90.4 130.606 90.4 130.806C90.3 131.106 90.1 131.406 89.9 131.706C90.1 131.906 90.4 132.206 90.6 132.406C90.8 132.006 91 131.606 91.4 131.406C91.5 131.306 91.7 131.406 91.6 131.606C91.5 132.006 91.1 132.406 90.9 132.706C93.6 135.306 96.5 137.606 99.5 139.806C99.6 139.306 99.7 138.906 99.9 138.506C100 138.406 100.2 138.406 100.2 138.606C100.2 139.006 100 139.406 99.9 139.806C100.2 139.606 100.5 139.406 100.8 139.206C101 139.106 101.3 139.406 101.1 139.506C100.7 139.806 100.4 140.006 100 140.206C101.8 141.306 103.2 142.306 104.7 143.406Z" fill="#594639"/>
<path opacity="0.2" d="M127.2 142.606C121.9 147.406 115.4 150.606 110.9 150.306C101.8 149.706 86.7 137.006 85.2 130.106C83.2 120.806 93.4 113.506 98.8 113.106C94.7 116.806 93.9 122.906 95.3 128.206C97 134.406 101.4 139.406 107.2 142.106C113.8 145.106 120.8 144.906 127.2 142.606Z" fill="#594639"/>
<path d="M54.3 114.506C54.7 124.606 41.5 128.806 35.4 126.806C29.1 124.806 24.5 112.906 25 102.606C25.8 87.4061 36.1 71.8061 42.2 72.3061C42.4 72.3061 42.6 72.4061 42.7 72.5061C45.5 74.1061 41.2 86.9061 43 91.3061C44.8 96.0061 53.1 105.106 54.3 113.206C54.3 113.706 54.3 114.106 54.3 114.506Z" fill="#BA8867"/>
<path opacity="0.2" d="M42.1 72.806C39.8 74.806 38 77.206 36.5 79.906C36.5 79.706 36.4 79.606 36.4 79.406C36.3 79.106 35.9 79.206 35.9 79.506C35.9 79.906 36 80.306 36.1 80.706C36.1 80.706 36.1 80.706 36.1 80.806C35.7 80.706 35.3 80.606 34.9 80.506C34.8 80.506 34.7 80.706 34.8 80.706C35.2 80.806 35.5 81.006 35.9 81.106C34 84.806 32.8 88.906 32.1 93.006C31.8 93.006 31.5 93.006 31.1 93.106C30.9 93.106 30.9 93.506 31.1 93.506C31.4 93.506 31.7 93.506 31.9 93.506C31.8 94.206 31.7 94.906 31.6 95.506C31.2 95.506 30.8 95.606 30.5 95.606C30.2 95.706 30.3 96.006 30.6 96.006C30.9 96.006 31.3 96.006 31.6 96.006C31.5 96.906 31.4 97.906 31.4 98.806C31.1 104.506 32 110.306 34.2 115.606C33.7 115.906 33.3 116.306 32.9 116.606C32.8 116.706 32.9 116.906 33.1 116.806C33.5 116.506 33.9 116.206 34.4 115.906C34.6 116.406 34.8 116.906 35 117.406C34.6 117.806 34.2 118.306 34 118.806C33.9 119.006 34.2 119.206 34.3 119.106C34.7 118.806 35 118.406 35.3 118.106C36.9 121.206 38.9 124.106 41.4 126.706C41.6 126.906 41.9 126.606 41.7 126.406C39.4 123.606 37.5 120.606 36 117.506C36.4 117.206 36.9 116.806 37.3 116.506C37.5 116.306 37.3 116.006 37 116.106C36.5 116.306 36.1 116.606 35.7 117.006C35.5 116.606 35.3 116.206 35.2 115.806C35.5 115.706 35.8 115.506 36 115.306C36.2 115.206 36 115.006 35.8 115.006C35.5 115.006 35.2 115.206 35 115.306C32.9 110.306 31.9 104.906 32.2 99.106C32.3 98.206 32.3 97.206 32.4 96.306C32.9 96.306 33.4 96.306 33.8 96.106C34 96.006 33.9 95.806 33.7 95.706C33.3 95.606 32.8 95.606 32.4 95.606C32.5 95.006 32.6 94.406 32.7 93.706C33 93.806 33.3 93.806 33.6 93.906C33.8 93.906 34 93.606 33.8 93.506C33.5 93.306 33.1 93.306 32.8 93.206C33.5 89.306 34.6 85.606 36.3 82.106C36.4 82.406 36.6 82.606 36.7 82.806C36.8 82.906 37 82.806 37 82.706C37 82.406 36.9 82.106 36.8 81.806C37.1 82.006 37.4 82.106 37.7 82.106C37.9 82.106 37.9 81.906 37.8 81.806C37.5 81.506 37 81.306 36.6 81.206C38 78.406 39.8 75.706 42 73.206C42.4 72.906 42.2 72.706 42.1 72.806Z" fill="#594639"/>
<path opacity="0.2" d="M54.3 114.506C54.7 124.606 41.5 128.806 35.4 126.806C29.1 124.806 24.5 112.906 25 102.606C25.8 87.4061 36.1 71.8061 42.2 72.3061C42.4 72.3061 42.6 72.4061 42.7 72.5061C42.5 72.6061 42.2 72.6061 42.1 72.4061C37.3 75.2061 34.4 80.2061 32.5 85.3061C30.3 91.2061 29.4 97.6061 30.5 103.806C31.6 110.006 34.8 115.906 41.3 117.806C46 119.206 50.9 117.706 54.3 114.506Z" fill="#594639"/>
<path d="M102 124.806C101 125.706 99.9 126.406 98.8 126.806C92.5 128.806 78.4 124.206 80 113.306C81.1 105.206 89.4 96.106 91.3 91.406C93.1 86.706 88.3 72.706 92.1 72.406C92.6 72.406 93.2 72.406 93.8 72.606C99.9 74.606 108.6 88.806 109.3 102.606C109.6 111.006 106.6 120.506 102 124.806Z" fill="#BA8867"/>
<path opacity="0.2" d="M105.6 100.006C105 100.006 104.4 100.006 103.8 100.006C103.8 99.606 103.9 99.106 103.9 98.706C104.3 98.806 104.7 98.906 105.1 98.906C105.3 98.906 105.4 98.606 105.2 98.506C104.8 98.306 104.4 98.306 103.9 98.206C103.9 97.706 103.9 97.206 103.9 96.606C103.9 91.806 102.9 87.006 101 82.606C100.6 81.706 100.2 80.806 99.7 79.806C100 79.706 100.2 79.606 100.5 79.406C100.7 79.306 100.6 78.806 100.3 78.906C100 79.006 99.7 79.206 99.5 79.306C97.9 76.406 95.6 73.606 92.6 72.306C92.4 72.206 92.3 72.506 92.5 72.606C95.2 74.206 97.3 76.806 98.9 79.606C98.5 79.806 98.1 80.106 97.6 80.306C97.5 80.406 97.6 80.606 97.7 80.606C98.2 80.406 98.6 80.206 99.1 80.006C99.9 81.506 100.6 83.106 101.1 84.606C102.6 88.906 103.2 93.406 103.1 97.906C103 97.906 102.8 97.906 102.7 97.906C102.6 97.906 102.5 98.106 102.6 98.106C102.7 98.106 102.9 98.206 103 98.206C103 98.706 102.9 99.306 102.9 99.806C102.5 99.806 102.2 99.806 101.8 99.806C101.6 99.806 101.6 100.106 101.8 100.106C102.1 100.106 102.5 100.206 102.9 100.206C102.4 106.606 100.4 112.806 97.6 118.606C97.4 118.606 97.2 118.506 97 118.506C96.8 118.506 96.7 118.706 96.9 118.806C97.1 118.806 97.2 118.906 97.4 118.906C97.3 119.206 97.1 119.506 97 119.806C96.7 119.706 96.4 119.606 96.1 119.506C95.9 119.506 95.9 119.706 96 119.706C96.3 119.806 96.5 119.906 96.8 120.106C95.9 121.906 94.9 123.706 93.9 125.406C93.8 125.606 94.1 125.806 94.2 125.606C95.3 123.906 96.3 122.206 97.3 120.406C98 120.806 98.6 121.106 99.3 121.406C99.5 121.506 99.6 121.206 99.5 121.106C98.9 120.606 98.2 120.306 97.5 120.006C97.7 119.706 97.8 119.406 98 119.106C98.6 119.306 99.2 119.506 99.7 119.806C99.9 119.906 100.1 119.506 99.9 119.406C99.4 119.106 98.8 118.906 98.2 118.806C101.1 113.006 103.2 106.806 103.8 100.406C104.4 100.406 105.1 100.406 105.7 100.306C105.9 100.306 105.8 100.006 105.6 100.006Z" fill="#594639"/>
<path opacity="0.2" d="M102 124.806C101 125.706 99.9 126.406 98.8 126.806C92.5 128.806 78.4 124.206 80 113.306C81.1 105.206 89.4 96.106 91.3 91.406C93.1 86.706 88.3 72.706 92.1 72.406C92.6 72.406 93.2 72.406 93.8 72.606C93.2 75.506 94.5 78.306 95.3 81.106C96.2 83.906 96.5 86.806 96.3 89.706C95.9 95.906 93 101.006 90.9 106.606C88.6 112.806 88.8 119.806 95.3 123.206C97.4 124.306 99.7 124.806 102 124.806Z" fill="#594639"/>
<path d="M49.9 22.6059C47.8 26.8059 43.8 29.9059 38.2 30.7059C27.7 32.1059 21 24.4059 21.6 15.1059C22 8.70586 27.3 2.60586 34 0.605859C35.5 0.205859 37 0.00585938 38.4 0.00585938C44.9 0.205859 50.1 5.00586 51.3 10.7059C52.2 14.8059 51.7 19.1059 49.9 22.6059Z" fill="#BA8867"/>
<path d="M29.4 16.3059C29 21.9059 33 26.5059 39.3 25.6059C45.5 24.8059 48.3 19.0059 47.2 13.7059C46.3 9.50591 41.9 6.20591 36.9 7.60591C32.7 8.90591 29.6 12.5059 29.4 16.3059Z" fill="#E8BB9C"/>
<path opacity="0.2" d="M49.9 22.6059C47.8 26.8059 43.8 29.9059 38.2 30.7059C27.7 32.1059 21 24.4059 21.6 15.1059C22 8.70586 27.3 2.60586 34 0.605859C35.5 0.205859 37 0.00585938 38.4 0.00585938C38.2 0.205859 37.9 0.305859 37.7 0.105859C30.5 4.40586 27.1 13.5059 31.8 21.0059C34.1 24.7059 38.8 26.1059 43 25.9059C46 25.9059 47.9 24.3059 49.9 22.6059Z" fill="#594639"/>
<path d="M110.4 26.406C107.5 29.606 103 31.406 97.5 30.606C87.1 29.206 82.4 19.506 84.3 10.706C85.8 3.70604 93.2 -1.89396 101.6 0.606039C102.4 0.806039 103.2 1.10604 103.9 1.50604C109.5 4.10604 113.6 9.50604 114 15.106C114.3 19.506 113 23.606 110.4 26.406Z" fill="#BA8867"/>
<path d="M106.3 16.3059C106.7 21.9059 102.7 26.5059 96.4 25.6059C90.2 24.8059 87.4 19.0059 88.5 13.7059C89.4 9.50591 93.8 6.20591 98.8 7.60591C102.9 8.90591 106 12.5059 106.3 16.3059Z" fill="#E8BB9C"/>
<path opacity="0.2" d="M110.4 26.406C107.5 29.606 103 31.406 97.5 30.606C87.1 29.206 82.4 19.506 84.3 10.706C85.8 3.70604 93.2 -1.89396 101.6 0.606039C102.4 0.806039 103.2 1.10604 103.9 1.50604C99.9 1.80604 96.2 3.70604 94.1 7.30604C91.9 10.906 91.9 15.406 94 19.106C97.4 25.206 103.9 27.106 110.4 26.406Z" fill="#594639"/>
<path d="M97.4 71.0059C94.1 74.6059 89.8 77.2059 85 78.8059C83.4 79.3059 81.8 79.8059 80.2 80.1059C70.5 82.2059 59.4 81.1059 50.4 78.1059C41.6 75.2059 34.6 70.6059 32.6 65.5059C27.1 51.4059 31.8 25.3059 42.8 14.5059C46.3 11.1059 51 8.80589 56.4 7.50589C68.9 4.50589 84.5 7.00589 93.1 14.7059C101.8 22.5059 112 54.9059 97.4 71.0059Z" fill="#BA8867"/>
<path opacity="0.2" d="M80.2 80.206C70.5 82.306 59.4 81.206 50.4 78.206C41.6 75.306 34.6 70.706 32.6 65.606C27.1 51.506 31.8 25.406 42.8 14.606C46.3 11.206 51 8.90596 56.4 7.60596C53.2 10.506 50.4 13.906 48.2 17.706C43.3 26.406 41.5 36.606 41.6 46.506C41.6 51.706 42.1 57.106 44.5 61.906C45.4 63.706 46.5 65.306 47.8 66.806C49.5 68.806 51.5 70.606 53.7 72.106C61.4 77.606 70.9 79.506 80.2 80.206Z" fill="#594639"/>
<path opacity="0.2" d="M69.7 68.006C69.3 67.606 68.7 67.306 68.1 67.006C68.6 66.806 69.1 66.606 69.6 66.306C69.9 66.106 69.7 65.606 69.4 65.706C68.9 65.806 68.4 66.006 67.9 66.206C68 63.506 68 60.906 68.1 58.206C68.5 58.206 68.9 58.106 69.2 58.006C69.5 57.906 69.4 57.506 69.2 57.506C68.8 57.506 68.5 57.506 68.1 57.606C68.1 57.506 68.1 57.406 68.1 57.406C68.3 51.806 68.4 46.106 68.5 40.506C68.5 40.006 68.5 39.506 68.5 38.906C69 38.806 69.4 38.606 69.9 38.506C70.3 38.406 70.2 37.706 69.7 37.806C69.3 37.906 68.9 38.006 68.5 38.206C68.5 37.706 68.5 37.206 68.5 36.706C69.1 36.806 69.7 36.806 70.3 36.706C70.6 36.606 70.6 36.206 70.3 36.206C69.7 36.006 69.1 35.906 68.5 35.806C68.6 31.606 68.6 27.306 68.6 23.106C69 23.106 69.5 23.106 69.9 23.106C70.3 23.106 70.2 22.506 69.9 22.406C69.5 22.306 69 22.206 68.6 22.206C68.6 21.606 68.6 21.106 68.6 20.506C69 20.406 69.4 20.406 69.8 20.306C70.1 20.206 70.1 19.706 69.7 19.706C69.3 19.706 69 19.706 68.6 19.706C68.5 15.506 68.4 11.306 68 7.20601C68 6.80601 67.4 6.80601 67.4 7.20601C67.2 11.506 67.2 15.806 67.1 20.006C66.5 20.206 65.8 20.406 65.3 20.606C65.1 20.706 65.2 20.906 65.4 20.906C66 20.806 66.6 20.706 67.2 20.706C67.2 21.206 67.2 21.706 67.2 22.306C66.5 22.406 65.8 22.506 65.2 22.606C64.9 22.606 64.9 23.106 65.3 23.106C65.9 23.106 66.6 23.106 67.2 23.206C67.2 27.406 67.2 31.506 67.2 35.706C66.6 35.606 66.1 35.406 65.5 35.306C65.3 35.206 65.1 35.506 65.3 35.706C65.8 36.006 66.5 36.306 67.1 36.606C67.1 37.406 67.1 38.206 67.1 39.006C66.7 39.206 66.4 39.406 66 39.606C65.8 39.706 66 40.106 66.2 40.006C66.5 39.906 66.8 39.806 67.1 39.706C67.1 40.106 67.1 40.406 67.1 40.806C67 46.306 66.9 51.806 66.8 57.206C66.8 57.506 66.8 57.906 66.8 58.206C66.5 58.306 66.2 58.306 65.9 58.406C65.8 58.406 65.8 58.706 65.9 58.606C66.2 58.606 66.5 58.606 66.8 58.606C66.7 61.206 66.6 63.906 66.5 66.506C65.9 66.306 65.4 66.006 64.8 65.806C64.6 65.706 64.4 66.106 64.6 66.206C65.2 66.506 65.8 66.806 66.4 67.206C65.8 67.606 65.2 68.006 64.6 68.506C64.5 68.606 64.6 68.806 64.7 68.706C65.2 68.406 65.8 68.206 66.3 68.006C66.2 70.106 66.2 72.106 66.3 74.106C66.3 74.706 67.1 74.706 67.2 74.106C67.5 72.106 67.6 70.006 67.7 67.906C68.2 68.206 68.7 68.506 69.3 68.706C69.7 68.606 69.9 68.206 69.7 68.006Z" fill="#594639"/>
<path d="M85.9 75.6061C85.6 75.9061 85.3 76.2061 85 76.4061C84.8 76.5061 84.7 76.6061 84.5 76.8061C83.9 77.2061 83.3 77.6061 82.6 77.9061C78.8 79.8061 73.7 80.6061 68.6 80.5061C64 80.4061 59.3 79.7061 55.5 78.4061C53.5 77.7061 51.7 76.8061 50.4 75.8061C48.8 74.6061 47.8 73.3061 47.5 71.8061C47 69.3061 47.2 66.8061 47.9 64.5061C49.7 58.5061 54.6 53.4061 58 51.5061C60.3 50.3061 62.6 49.5061 64.9 49.2061C70.7 48.4061 76.3 50.0061 80.1 53.1061C85.7 57.4061 91 70.7061 85.9 75.6061Z" fill="#E8BB9C"/>
<path opacity="0.2" d="M84.5 76.8061C83.9 77.2061 83.3 77.6061 82.6 77.9061C78.8 79.8061 73.7 80.6061 68.6 80.5061C64 80.4061 59.3 79.7061 55.5 78.4061C53.5 77.7061 51.7 76.8061 50.4 75.8061C48.8 74.6061 47.8 73.3061 47.5 71.8061C47 69.3061 47.2 66.8061 47.9 64.5061C49.7 58.5061 54.6 53.4061 58 51.5061C60.3 50.3061 62.6 49.5061 64.9 49.2061C60.6 51.4061 57 54.7061 55.2 59.2061C53 64.6061 53.2 71.4061 58.6 74.8061C63.5 77.9061 70.9 78.7061 76.6 78.5061C79.3 78.3061 81.9 77.6061 84.5 76.8061Z" fill="#594639"/>
<path d="M68.6 58.406C68.6 56.306 68.5 54.106 68.3 52.006C68.3 51.806 68 51.806 68 52.006C67.8 54.006 67.7 56.006 67.7 58.106C67.7 59.106 67.8 60.206 67.5 61.106C66.9 63.506 64.6 61.706 63.6 60.706C63.5 60.606 63.2 60.706 63.3 60.906C64.1 62.506 66.6 64.406 68 62.306C68.8 61.206 68.6 59.606 68.6 58.406Z" fill="#594639"/>
<path d="M67.7 58.406C67.7 56.306 67.8 54.106 68 52.006C68 51.806 68.3 51.806 68.3 52.006C68.5 54.006 68.6 56.006 68.6 58.106C68.6 59.106 68.5 60.206 68.8 61.106C69.4 63.506 71.7 61.706 72.7 60.706C72.8 60.606 73.1 60.706 73 60.906C72.2 62.506 69.7 64.406 68.3 62.306C67.6 61.206 67.7 59.606 67.7 58.406Z" fill="#594639"/>
<path d="M68.2 56.106C67.1 56.106 61.4 53.306 61.8 51.506C62.2 49.706 66 48.906 68.2 48.906C70.5 48.906 74.3 49.706 74.6 51.506C75 53.306 69.3 56.106 68.2 56.106Z" fill="#594639"/>
<path d="M55.9 51.2061C55.7 52.8061 54.1 54.5061 51.9 54.3061C50.6 54.2061 49.4 53.2061 49 51.9061C48.2 49.7061 49.8 47.3061 52.1 47.1061C54.4 46.9061 56.2 48.9061 55.9 51.2061Z" fill="#594639"/>
<path opacity="0.5" d="M49 57.4061C48.8 59.6061 46.6 61.9061 43.5 61.6061C41.7 61.4061 40.2 60.1061 39.6 58.4061C38.5 55.4061 40.6 52.2061 43.8 51.9061C46.9 51.6061 49.3 54.4061 49 57.4061Z" fill="#CC6666"/>
<path opacity="0.5" d="M97 57.4061C96.8 59.6061 94.6 61.9061 91.5 61.6061C89.7 61.4061 88.2 60.1061 87.6 58.4061C86.5 55.4061 88.6 52.2061 91.8 51.9061C94.9 51.6061 97.3 54.4061 97 57.4061Z" fill="#CC6666"/>
<path d="M54.1 38.0061C51.8 36.5061 46.5 38.8061 46.5 41.7061C46.5 42.0061 46.8 42.3061 47.1 42.2061C48.3 41.9061 49.2 40.8061 50.4 40.4061C51.6 39.9061 52.9 39.9061 54.1 39.4061C54.7 39.2061 54.6 38.3061 54.1 38.0061Z" fill="#594639"/>
<path d="M79.8 51.2061C80 52.8061 81.6 54.5061 83.8 54.3061C85.1 54.2061 86.2 53.2061 86.7 51.9061C87.5 49.7061 85.9 47.3061 83.6 47.1061C81.4 46.9061 79.6 48.9061 79.8 51.2061Z" fill="#594639"/>
<path d="M81.6 38.0061C83.9 36.5061 89.2 38.8061 89.2 41.7061C89.2 42.0061 88.9 42.3061 88.6 42.2061C87.4 41.9061 86.5 40.8061 85.3 40.4061C84.1 39.9061 82.8 39.9061 81.6 39.4061C81 39.2061 81.2 38.3061 81.6 38.0061Z" fill="#594639"/>
</svg>
